<?xml version="1.0" encoding="UTF-8"?>
<svg version="1.1" xmlns="http://www.w3.org/2000/svg" width="800" height="392">
<path d="M0 0 C0.79148437 0.15441559 1.58296875 0.30883118 2.3984375 0.46792603 C4.07353689 0.79610531 5.74800417 1.12752499 7.421875 1.46191406 C9.98818386 1.97420375 12.5563371 2.47622479 15.125 2.9765625 C16.75011885 3.29627147 18.37512294 3.61656445 20 3.9375 C20.77085937 4.08859222 21.54171875 4.23968445 22.3359375 4.39535522 C27.76724808 5.48518654 27.76724808 5.48518654 30 6.6015625 C30.39188326 13.39093992 28.91417806 19.67300246 27.5 26.2890625 C27.02775064 28.52139799 26.55885541 30.75444639 26.09375 32.98828125 C25.88427734 33.97014404 25.67480469 34.95200684 25.45898438 35.96362305 C24.88572124 38.81209943 24.88572124 38.81209943 25 42.6015625 C26.08796875 43.14683594 27.1759375 43.69210938 28.296875 44.25390625 C40.43472491 50.44060714 51.14434596 57.15238958 60.57421875 67.16796875 C65.62307653 70.15175426 71.42200928 68.86546311 76.89453125 67.54296875 C78.53702046 67.09477957 80.17639998 66.63504133 81.8125 66.1640625 C82.64458984 65.93396484 83.47667969 65.70386719 84.33398438 65.46679688 C85.87232695 65.04119288 87.40938737 64.61090171 88.94458008 64.17407227 C89.62286865 63.98514404 90.30115723 63.79621582 91 63.6015625 C91.65347412 63.37339844 92.30694824 63.14523438 92.98022461 62.91015625 C95.71286334 62.49264684 97.083547 63.25763636 99.546875 64.47265625 C100.39121094 64.88193359 101.23554688 65.29121094 102.10546875 65.71289062 C102.97816406 66.15052734 103.85085938 66.58816406 104.75 67.0390625 C105.63816406 67.47283203 106.52632813 67.90660156 107.44140625 68.35351562 C109.63301399 69.42575382 111.8186409 70.50866483 114 71.6015625 C114 72.9215625 114 74.2415625 114 75.6015625 C111.97166661 77.29697795 110.1152051 78.61730053 107.875 79.9765625 C107.25061035 80.36577881 106.6262207 80.75499512 105.98291016 81.15600586 C90.41108508 90.6015625 90.41108508 90.6015625 82 90.6015625 C82.85271484 91.94734375 82.85271484 91.94734375 83.72265625 93.3203125 C98.90915846 117.67820614 106.67309077 143.80823496 106 172.6015625 C104.68 172.6015625 103.36 172.6015625 102 172.6015625 C100.44569267 171.04725517 100.74753094 169.45168448 100.60546875 167.2890625 C98.72952367 141.6709735 92.49819205 114.18599407 76 93.6015625 C75.34 93.2715625 74.68 92.9415625 74 92.6015625 C74.64066406 93.72949219 75.28132813 94.85742188 75.94140625 96.01953125 C96.11419123 132.38841535 100.80155885 174.59323792 89.375 214.6015625 C83.08499064 235.12296764 72.80618958 252.11618991 58 267.6015625 C57.39027344 268.27445312 56.78054688 268.94734375 56.15234375 269.640625 C36.73993935 290.33070358 5.86587369 303.96040096 -22.296875 305.55859375 C-22.85890625 305.57277344 -23.4209375 305.58695312 -24 305.6015625 C-24.02692484 303.30995931 -24.04636124 301.01826704 -24.0625 298.7265625 C-24.07410156 297.45039063 -24.08570313 296.17421875 -24.09765625 294.859375 C-24 291.6015625 -24 291.6015625 -23 289.6015625 C-23.886875 289.5396875 -24.77375 289.4778125 -25.6875 289.4140625 C-35.79920052 287.9432697 -45.31472387 282.73893172 -54 277.6015625 C-54.66515625 277.21742188 -55.3303125 276.83328125 -56.015625 276.4375 C-57.6875 275.4140625 -57.6875 275.4140625 -60 273.6015625 C-60 272.6115625 -60 271.6215625 -60 270.6015625 C-58.89265503 270.37605713 -58.89265503 270.37605713 -57.76293945 270.14599609 C-14.2897992 261.22963852 24.27852553 250.00130133 50.03125 211.5703125 C66.25950549 185.09263249 71.87226486 150.3493209 64.98828125 120.10546875 C63.22309419 113.84707826 61.19001365 107.72509582 59 101.6015625 C58.39077891 99.79075515 57.78570966 97.9785373 57.1875 96.1640625 C56.795625 94.9884375 56.40375 93.8128125 56 92.6015625 C55.33355469 92.57578125 54.66710937 92.55 53.98046875 92.5234375 C50.96275563 92.33773208 47.99763757 91.99481693 45 91.6015625 C44.0203125 91.50617188 43.040625 91.41078125 42.03125 91.3125 C38.53306231 90.59171957 36.73578698 89.94652277 34 87.6015625 C30.83531527 81.58662353 28 73.46179866 28 66.6015625 C36.24270177 67.46246691 36.24270177 67.46246691 40.0625 68.1640625 C42.52644427 68.53103292 44.7067553 68.64665228 47.18359375 68.62890625 C48.44300781 68.61988281 49.70242188 68.61085938 51 68.6015625 C27.79668945 52.51298045 1.19378964 45.23731056 -26.93408203 50.1875 C-54.55531532 55.7234976 -79.31061672 72.79600008 -95.42333984 95.77490234 C-116.53433922 127.91416761 -122.47759909 166.20620719 -115 203.6015625 C-108.11628155 234.87845765 -89.72616389 263.73607927 -62.65551758 281.2121582 C-53.94558503 286.59687872 -44.61776244 290.17530349 -35 293.6015625 C-35 298.8815625 -35 304.1615625 -35 309.6015625 C-45.80011931 309.9426189 -55.45498408 308.7463115 -66 306.6015625 C-66.41958984 307.92220703 -66.41958984 307.92220703 -66.84765625 309.26953125 C-67.88622655 312.27258368 -69.04744159 315.06032887 -70.4375 317.9140625 C-70.84871094 318.77644531 -71.25992188 319.63882812 -71.68359375 320.52734375 C-73 322.6015625 -73 322.6015625 -76 323.6015625 C-78.6003418 322.58520508 -78.6003418 322.58520508 -81.69921875 320.99609375 C-82.82650391 320.42439453 -83.95378906 319.85269531 -85.11523438 319.26367188 C-86.30612666 318.64740023 -87.49688096 318.03086188 -88.6875 317.4140625 C-89.84701172 316.82302734 -91.00652344 316.23199219 -92.20117188 315.62304688 C-94.45298705 314.47473635 -96.70290019 313.32268659 -98.95068359 312.16650391 C-102.62013317 310.28330361 -106.30645167 308.43695088 -110 306.6015625 C-109.52412884 300.57386112 -106.80277043 295.83477961 -104 290.6015625 C-105.08474609 290.21097656 -105.08474609 290.21097656 -106.19140625 289.8125 C-116.05939179 285.5578748 -124.4393662 276.95332819 -132.43530273 269.91674805 C-134.23213636 268.40644336 -136.12219169 267.00991873 -138 265.6015625 C-142.95 269.5615625 -142.95 269.5615625 -148 273.6015625 C-157.46254595 268.87028953 -164.46826668 257.75987532 -171 249.6015625 C-171.76570313 248.75335938 -172.53140625 247.90515625 -173.3203125 247.03125 C-175 244.6015625 -175 244.6015625 -175.12890625 242.6171875 C-173.38157858 239.49739138 -170.70389583 237.52674002 -167.9375 235.3515625 C-167.36966797 234.89265625 -166.80183594 234.43375 -166.21679688 233.9609375 C-164.8180802 232.83256102 -163.40992986 231.7158962 -162 230.6015625 C-162.61601954 227.23194683 -163.43980142 224.07215155 -164.55859375 220.8359375 C-164.86216797 219.94519531 -165.16574219 219.05445313 -165.47851562 218.13671875 C-166.11261491 216.29511879 -166.74801003 214.45396445 -167.38476562 212.61328125 C-170.11452042 204.59138027 -172.36292182 197.13022523 -172 188.6015625 C-172.6612085 188.60679932 -173.32241699 188.61203613 -174.00366211 188.61743164 C-176.98159851 188.63813906 -179.95951982 188.65120262 -182.9375 188.6640625 C-183.97841797 188.67244141 -185.01933594 188.68082031 -186.09179688 188.68945312 C-187.08115234 188.69267578 -188.07050781 188.69589844 -189.08984375 188.69921875 C-190.00628662 188.70445557 -190.92272949 188.70969238 -191.86694336 188.71508789 C-194 188.6015625 -194 188.6015625 -195 187.6015625 C-195.10106874 184.72892194 -195.13969672 181.88082622 -195.1328125 179.0078125 C-195.13376923 178.14595337 -195.13472595 177.28409424 -195.13571167 176.39611816 C-195.1363935 174.57023038 -195.13453904 172.74434019 -195.13037109 170.91845703 C-195.12502286 168.11355172 -195.13031599 165.30880655 -195.13671875 162.50390625 C-195.13605797 160.73437464 -195.13477681 158.96484314 -195.1328125 157.1953125 C-195.13483673 156.35053345 -195.13686096 155.50575439 -195.13894653 154.63537598 C-195.11495031 148.71651281 -195.11495031 148.71651281 -194 147.6015625 C-192.36527118 147.51455908 -190.72685945 147.49455187 -189.08984375 147.50390625 C-188.10048828 147.50712891 -187.11113281 147.51035156 -186.09179688 147.51367188 C-185.05087891 147.52205078 -184.00996094 147.53042969 -182.9375 147.5390625 C-181.37032227 147.54583008 -181.37032227 147.54583008 -179.77148438 147.55273438 C-177.1809334 147.56456337 -174.59049441 147.58104561 -172 147.6015625 C-171.8980835 146.84504395 -171.79616699 146.08852539 -171.69116211 145.30908203 C-169.87762323 132.34186982 -165.60201855 120.33137598 -160.13671875 108.4921875 C-158.75602425 105.498826 -158.75602425 105.498826 -159 101.6015625 C-160.75065248 99.69575186 -162.41978306 98.07844092 -164.375 96.4140625 C-164.88289063 95.96353516 -165.39078125 95.51300781 -165.9140625 95.04882812 C-167.86771032 93.3342451 -169.66544786 91.76883857 -172 90.6015625 C-171.57849179 85.77178091 -169.26862271 83.28844559 -166 79.9765625 C-164.99619715 78.92425484 -163.99493967 77.86951391 -162.99609375 76.8125 C-162.49319824 76.28108398 -161.99030273 75.74966797 -161.47216797 75.20214844 C-158.46736785 71.93523805 -155.73636072 68.44798195 -152.97265625 64.9765625 C-149.09259701 60.30512484 -149.09259701 60.30512484 -147 58.6015625 C-142.97760134 58.52798204 -140.53489269 61.56238643 -137.75 64.1640625 C-136.85796875 64.99035156 -135.9659375 65.81664063 -135.046875 66.66796875 C-134.37140625 67.30605469 -133.6959375 67.94414063 -133 68.6015625 C-129.33052286 67.02403027 -126.73203933 64.73375364 -123.75 62.1015625 C-116.28152545 55.66925254 -107.82455697 50.01384098 -99 45.6015625 C-99.27714844 44.539375 -99.55429688 43.4771875 -99.83984375 42.3828125 C-100.20598636 40.95579513 -100.57185722 39.52870802 -100.9375 38.1015625 C-101.11990234 37.40546875 -101.30230469 36.709375 -101.49023438 35.9921875 C-102.70965566 31.20318756 -103.47422365 26.51618779 -104 21.6015625 C-84.36581222 14.93504469 -84.36581222 14.93504469 -74.9375 12.1015625 C-73.87402344 11.781875 -72.81054688 11.4621875 -71.71484375 11.1328125 C-68.87743082 10.57757774 -67.63820689 10.50222707 -65 11.6015625 C-63.90332031 13.55102539 -63.90332031 13.55102539 -63.078125 16.07421875 C-62.77519531 16.97333984 -62.47226563 17.87246094 -62.16015625 18.79882812 C-61.85980469 19.74435547 -61.55945313 20.68988281 -61.25 21.6640625 C-60.77626953 23.0881543 -60.77626953 23.0881543 -60.29296875 24.54101562 C-59.51387215 26.89010991 -58.75038315 29.24317025 -58 31.6015625 C-56.93523437 31.4571875 -55.87046875 31.3128125 -54.7734375 31.1640625 C-41.71934444 29.4653665 -29.11534029 29.10266647 -16 30.6015625 C-15.90203125 29.87195313 -15.8040625 29.14234375 -15.703125 28.390625 C-14.7141515 21.48486176 -13.46697583 14.67068671 -12 7.8515625 C-11.8340332 7.05314941 -11.66806641 6.25473633 -11.49707031 5.43212891 C-11.06466412 3.47270869 -10.54009083 1.534075 -10 -0.3984375 C-6.74672891 -2.02507305 -3.44041043 -0.69240597 0 0 Z " fill="#261C6E" transform="translate(268,35.3984375)"/>
<path d="M0 0 C1.010625 0.53367187 2.02125 1.06734375 3.0625 1.6171875 C5.73186687 3.04039586 8.37244208 4.50139282 11 6 C9.67589915 9.97230256 7.20206953 11.18035143 3.8125 13.3125 C2.88268311 13.90309204 2.88268311 13.90309204 1.93408203 14.50561523 C-5.14715933 18.88121222 -13.55774887 24 -22 24 C-21.43152344 24.8971875 -20.86304688 25.794375 -20.27734375 26.71875 C-5.09084154 51.07664364 2.67309077 77.20667246 2 106 C0.68 106 -0.64 106 -2 106 C-3.55430733 104.44569267 -3.25246906 102.85012198 -3.39453125 100.6875 C-5.27047633 75.069411 -11.50180795 47.58443157 -28 27 C-28.66 26.67 -29.32 26.34 -30 26 C-29.35933594 27.12792969 -28.71867188 28.25585938 -28.05859375 29.41796875 C-7.88580877 65.78685285 -3.19844115 107.99167542 -14.625 148 C-20.91500936 168.52140514 -31.19381042 185.51462741 -46 201 C-46.60972656 201.67289063 -47.21945312 202.34578125 -47.84765625 203.0390625 C-67.26006065 223.72914108 -98.13412631 237.35883846 -126.296875 238.95703125 C-126.85890625 238.97121094 -127.4209375 238.98539063 -128 239 C-128.02692484 236.70839681 -128.04636124 234.41670454 -128.0625 232.125 C-128.07410156 230.84882813 -128.08570313 229.57265625 -128.09765625 228.2578125 C-128 225 -128 225 -127 223 C-127.886875 222.938125 -128.77375 222.87625 -129.6875 222.8125 C-139.79920052 221.3417072 -149.31472387 216.13736922 -158 211 C-158.66515625 210.61585938 -159.3303125 210.23171875 -160.015625 209.8359375 C-161.6875 208.8125 -161.6875 208.8125 -164 207 C-164 206.01 -164 205.02 -164 204 C-163.26177002 203.84966309 -162.52354004 203.69932617 -161.76293945 203.54443359 C-118.2897992 194.62807602 -79.72147447 183.39973883 -53.96875 144.96875 C-37.74049451 118.49106999 -32.12773514 83.7477584 -39.01171875 53.50390625 C-40.77690581 47.24551576 -42.80998635 41.12353332 -45 35 C-45.60922109 33.18919265 -46.21429034 31.3769748 -46.8125 29.5625 C-47.204375 28.386875 -47.59625 27.21125 -48 26 C-48.99966797 25.96132812 -48.99966797 25.96132812 -50.01953125 25.921875 C-53.03724437 25.73616958 -56.00236243 25.39325443 -59 25 C-59.9796875 24.90460938 -60.959375 24.80921875 -61.96875 24.7109375 C-65.46693769 23.99015707 -67.26421302 23.34496027 -70 21 C-73.16468473 14.98506103 -76 6.86023616 -76 0 C-71.05639916 0.52967152 -66.1301808 1.11683787 -61.20336914 1.78686523 C-45.48510018 3.87143303 -31.03751741 3.02564094 -16.0625 -2.4375 C-9.46224285 -4.57745915 -5.87742095 -3.3611501 0 0 Z " fill="#ED1C22" transform="translate(372,102)"/>
<path d="M0 0 C1.62285849 1.93577632 1.96201715 3.12008861 2.36352539 5.59326172 C2.55205078 6.70894531 2.55205078 6.70894531 2.74438477 7.84716797 C2.92130859 9.00539063 2.92130859 9.00539063 3.10180664 10.18701172 C3.23135742 10.95916016 3.3609082 11.73130859 3.49438477 12.52685547 C3.99925389 15.60949551 4.41430664 18.55878906 4.41430664 21.68701172 C-1.06262431 21.0646332 -6.21317577 19.78389493 -11.52319336 18.30810547 C-14.94248411 17.61465237 -18.10581453 17.5869652 -21.58569336 17.68701172 C-20.91924805 18.17427734 -20.25280273 18.66154297 -19.56616211 19.16357422 C-2.24946034 32.48411404 7.49925693 50.12967609 12.00024414 71.46435547 C16.21514499 104.26900832 7.44957037 137.57208176 -12.58569336 163.68701172 C-28.28316139 183.63341846 -51.09810583 195.56688906 -75.39819336 201.56201172 C-76.25743408 201.77752686 -77.1166748 201.99304199 -78.00195312 202.21508789 C-92.29926358 205.5301076 -92.29926358 205.5301076 -97.53857422 202.59179688 C-99.41463765 201.02810874 -101.02013796 199.38202543 -102.64819336 197.56201172 C-103.23745605 196.93907227 -103.82671875 196.31613281 -104.43383789 195.67431641 C-118.58569336 180.25910938 -118.58569336 180.25910938 -118.58569336 173.68701172 C-117.6447583 173.47608887 -116.70382324 173.26516602 -115.734375 173.04785156 C-81.10724931 165.25164758 -46.68858192 157.28412966 -26.33569336 125.31201172 C-13.10327578 102.71552444 -7.07217193 76.76481648 -11.77709961 50.74169922 C-14.4567626 40.61852791 -20.06567288 32.81499321 -27.58569336 25.68701172 C-28.43260742 24.87232422 -29.27952148 24.05763672 -30.15209961 23.21826172 C-34.01500345 19.93451231 -36.73334688 17.69350359 -41.92944336 17.67529297 C-45.30718905 18.19237161 -45.30718905 18.19237161 -48.44506836 19.06591797 C-55.11871865 20.38570702 -59.9667289 18.37172144 -65.52319336 14.81201172 C-66.11165039 14.46009766 -66.70010742 14.10818359 -67.30639648 13.74560547 C-68.98803711 12.69482422 -68.98803711 12.69482422 -71.58569336 10.68701172 C-71.58569336 9.69701172 -71.58569336 8.70701172 -71.58569336 7.68701172 C-54.11545426 -1.77125176 -18.31437408 -15.1646965 0 0 Z " fill="#EE1C22" transform="translate(286.585693359375,89.31298828125)"/>
<path d="M0 0 C11.58322863 6.3126592 18.20622717 20.33996612 21.9375 32.5625 C26.40922472 53.52370962 22.11586171 74.91196921 11 93 C8.54622871 96.56147376 5.91292091 99.8071051 3 103 C2.48308594 103.6084375 1.96617187 104.216875 1.43359375 104.84375 C-12.71113701 120.44194934 -34.1541669 126.13253364 -54.3203125 128.27734375 C-57 128 -57 128 -58.79296875 126.19140625 C-60.45627607 123.17161529 -61.37747354 120.36043412 -62 117 C-62.22558594 116.09765625 -62.45117188 115.1953125 -62.68359375 114.265625 C-63.21418123 110.64072644 -63.21415012 108.48085483 -62 105 C-58.66760826 101.53727159 -54.41978494 99.21907293 -50.34375 96.73828125 C-46.24294704 94.24194447 -42.74080907 91.40892565 -39.25 88.125 C-38.32703125 87.26132813 -37.4040625 86.39765625 -36.453125 85.5078125 C-34.11531426 83.11788496 -32.03343728 80.65107009 -30 78 C-31.21623047 78.50660156 -31.21623047 78.50660156 -32.45703125 79.0234375 C-43.08423134 83.30400936 -52.54097767 85.44742387 -64 85 C-64.02708567 83.39592672 -64.04643483 81.7917215 -64.0625 80.1875 C-64.07410156 79.29417969 -64.08570313 78.40085937 -64.09765625 77.48046875 C-64 75 -64 75 -63 72 C-61.1015625 71.18798828 -61.1015625 71.18798828 -58.625 70.5703125 C-57.26955078 70.21259766 -57.26955078 70.21259766 -55.88671875 69.84765625 C-54.45779297 69.48994141 -54.45779297 69.48994141 -53 69.125 C-40.12920363 65.90280063 -29.65910579 60.93315046 -22.3203125 49.40625 C-17.0332322 39.77062437 -15.24195905 28.07822601 -17.89453125 17.3984375 C-18.60687099 15.12801191 -19.34829144 12.86640605 -20.125 10.6171875 C-21 8 -21 8 -21 6 C-14.03295979 8.89765536 -8.59894529 16.03941626 -5.5 22.75 C-0.5972885 35.49704991 -2.76884939 49.57576726 -8.125 61.8125 C-13.51780952 73.72939797 -19.75323945 85.10721305 -27 96 C-9.76412429 86.43394747 1.10308529 74.96578984 7.03515625 55.625 C11.25755139 38.3426385 9.86027886 20.505488 0.953125 4.91796875 C0 3 0 3 0 0 Z " fill="#EE1C22" transform="translate(222,115)"/>
<path d="M0 0 C0 3.54066567 -0.51360457 3.93776957 -2.80859375 6.46875 C-3.39060547 7.12230469 -3.97261719 7.77585937 -4.57226562 8.44921875 C-5.18779297 9.12597656 -5.80332031 9.80273438 -6.4375 10.5 C-7.64864444 11.8400439 -8.85585778 13.18365411 -10.05859375 14.53125 C-10.59798584 15.12486328 -11.13737793 15.71847656 -11.69311523 16.33007812 C-13.21306035 18.07976989 -13.21306035 18.07976989 -14 21 C-13.03819603 22.9822552 -13.03819603 22.9822552 -11.5078125 24.9765625 C-10.96769531 25.729375 -10.42757812 26.4821875 -9.87109375 27.2578125 C-9.29488281 28.03898437 -8.71867188 28.82015625 -8.125 29.625 C-7.55652344 30.41390625 -6.98804688 31.2028125 -6.40234375 32.015625 C-3.88096356 35.65657047 -3.88096356 35.65657047 -1 39 C-0.65743164 38.16863525 -0.31486328 37.33727051 0.03808594 36.48071289 C1.32681861 33.35481826 2.61666216 30.22938664 3.90722656 27.10424805 C4.46235016 25.75937589 5.01704842 24.41432807 5.57128906 23.0690918 C8.62033962 15.6693653 11.70164655 8.29320386 15 1 C18.3 1 21.6 1 25 1 C29.20316091 9.92870143 33.14157104 18.92675875 36.875 28.0625 C37.37257813 29.25810547 37.87015625 30.45371094 38.3828125 31.68554688 C38.85203125 32.83216797 39.32125 33.97878906 39.8046875 35.16015625 C40.43866455 36.70135132 40.43866455 36.70135132 41.08544922 38.27368164 C42 41 42 41 42 45 C38.7 45 35.4 45 32 45 C29 38.375 29 38.375 29 35 C23.06 35 17.12 35 11 35 C10.67 36.98 10.34 38.96 10 41 C8.9375 43.375 8.9375 43.375 8 45 C-6.99491504 46.21443631 -6.99491504 46.21443631 -11.4765625 43.5 C-13.24870165 41.42845835 -14.6193546 39.34868414 -16 37 C-17.13254415 35.48994113 -18.27790555 33.98938737 -19.4375 32.5 C-20.29499479 31.3357773 -21.15047066 30.17004774 -22 29 C-24.57619276 30.91315119 -24.98395232 31.9016314 -25.51171875 35.13671875 C-25.56972656 36.30847656 -25.62773438 37.48023438 -25.6875 38.6875 C-25.75324219 39.86699219 -25.81898438 41.04648437 -25.88671875 42.26171875 C-25.92410156 43.16535156 -25.96148438 44.06898438 -26 45 C-27.64574566 45.02688151 -29.29161413 45.04634123 -30.9375 45.0625 C-31.85402344 45.07410156 -32.77054688 45.08570313 -33.71484375 45.09765625 C-36 45 -36 45 -37 44 C-37.09268999 42.64905018 -37.11747326 41.29332909 -37.11352539 39.93920898 C-37.11344986 39.07839218 -37.11337433 38.21757538 -37.11329651 37.33067322 C-37.10813522 36.39526199 -37.10297394 35.45985077 -37.09765625 34.49609375 C-37.0962413 33.54307877 -37.09482635 32.59006378 -37.09336853 31.60816956 C-37.08775152 28.55124835 -37.07519616 25.49439923 -37.0625 22.4375 C-37.05748719 20.37044376 -37.05292391 18.30338638 -37.04882812 16.23632812 C-37.03777656 11.15752412 -37.02050055 6.0787743 -37 1 C-33.37 1 -29.74 1 -26 1 C-25.67 6.28 -25.34 11.56 -25 17 C-23.03909808 14.89817699 -21.08121556 12.79367717 -19.125 10.6875 C-18.56941406 10.09259766 -18.01382813 9.49769531 -17.44140625 8.88476562 C-16.90644531 8.30791016 -16.37148438 7.73105469 -15.8203125 7.13671875 C-15.08192139 6.34334106 -15.08192139 6.34334106 -14.32861328 5.53393555 C-12.79418204 3.82718765 -12.79418204 3.82718765 -11 1 C-8.3984375 0.48828125 -8.3984375 0.48828125 -5.375 0.3125 C-3.87066406 0.21388672 -3.87066406 0.21388672 -2.3359375 0.11328125 C-1.17964844 0.05720703 -1.17964844 0.05720703 0 0 Z M19 14 C18.32942113 15.7902061 17.6636531 17.58221489 17 19.375 C16.62875 20.37273437 16.2575 21.37046875 15.875 22.3984375 C14.89373723 24.85848061 14.89373723 24.85848061 15 27 C18.3 27 21.6 27 25 27 C24.52140759 25.39566191 24.04210442 23.79153584 23.5625 22.1875 C23.29566406 21.29417969 23.02882813 20.40085937 22.75390625 19.48046875 C22.19612127 17.64526945 21.60655425 15.81966274 21 14 C20.34 14 19.68 14 19 14 Z " fill="#000000" transform="translate(729,257)"/>
<path d="M0 0 C8 0 8 0 9.8125 1.6953125 C10.204375 2.49710938 10.59625 3.29890625 11 4.125 C11.46664063 5.0221875 11.93328125 5.919375 12.4140625 6.84375 C12.93742187 7.8853125 13.46078125 8.926875 14 10 C15.43138708 12.55730344 16.9057221 15.08933158 18.375 17.625 C19.58665801 19.74812556 20.79310998 21.87415819 22 24 C24.19204321 21.19733628 25.99758914 18.35736581 27.69921875 15.234375 C28.42915039 13.90019531 28.42915039 13.90019531 29.17382812 12.5390625 C29.9230957 11.15847656 29.9230957 11.15847656 30.6875 9.75 C31.19861328 8.81414062 31.70972656 7.87828125 32.23632812 6.9140625 C33.49367841 4.6108788 34.74812759 2.30616434 36 0 C38.97 0 41.94 0 45 0 C45 14.52 45 29.04 45 44 C41.7 44 38.4 44 35 44 C34.505 33.605 34.505 33.605 34 23 C31.2441694 28.21061946 31.2441694 28.21061946 28.52661133 33.44116211 C25.61522432 38.77948026 25.61522432 38.77948026 22.19921875 40.00390625 C21.47347656 40.00261719 20.74773437 40.00132812 20 40 C19.44570313 39.02417969 18.89140625 38.04835937 18.3203125 37.04296875 C17.58859909 35.75777981 16.85682508 34.47262536 16.125 33.1875 C15.76019531 32.54490234 15.39539063 31.90230469 15.01953125 31.24023438 C13.41916099 28.43231202 11.79357134 25.69035702 10 23 C9.67 29.93 9.34 36.86 9 44 C6.03 44 3.06 44 0 44 C0 29.48 0 14.96 0 0 Z " fill="#000000" transform="translate(457,191)"/>
<path d="M0 0 C1.45917033 -0.04671285 2.91876619 -0.08028284 4.37841797 -0.1081543 C5.1911618 -0.12823044 6.00390564 -0.14830658 6.84127808 -0.16899109 C9 0 9 0 10.9453125 1.73046875 C11.33460938 2.54128906 11.72390625 3.35210937 12.125 4.1875 C12.58390625 5.08855469 13.0428125 5.98960937 13.515625 6.91796875 C14.00546875 7.93503906 14.4953125 8.95210938 15 10 C15.96591877 11.75318183 16.93192587 13.50633041 17.90576172 15.25512695 C22 22.62578715 22 22.62578715 22 25 C22.66 25 23.32 25 24 25 C24.22558594 24.20207031 24.45117188 23.40414063 24.68359375 22.58203125 C26.36663253 18.00236787 28.66063151 13.92389322 31.0625 9.6875 C31.52205078 8.86443359 31.98160156 8.04136719 32.45507812 7.19335938 C35.84527726 1.15472274 35.84527726 1.15472274 37 0 C39.64 0 42.28 0 45 0 C45 14.52 45 29.04 45 44 C42.03 44 39.06 44 36 44 C35.67 36.74 35.34 29.48 35 22 C32.03 27.61 29.06 33.22 26 39 C24.02 39 22.04 39 20 39 C17.03 33.72 14.06 28.44 11 23 C10.67 29.93 10.34 36.86 10 44 C7.03 44 4.06 44 1 44 C0 43 0 43 -0.12025452 41.24729919 C-0.11803391 40.48562943 -0.11581329 39.72395966 -0.11352539 38.93920898 C-0.11344986 38.07839218 -0.11337433 37.21757538 -0.11329651 36.33067322 C-0.10813522 35.39526199 -0.10297394 34.45985077 -0.09765625 33.49609375 C-0.0962413 32.54307877 -0.09482635 31.59006378 -0.09336853 30.60816956 C-0.08775152 27.55124835 -0.07519616 24.49439923 -0.0625 21.4375 C-0.05748719 19.37044376 -0.05292391 17.30338638 -0.04882812 15.23632812 C-0.03777656 10.15752412 -0.02050055 5.0787743 0 0 Z " fill="#000000" transform="translate(546,258)"/>
<path d="M0 0 C8 0 8 0 9.86962891 1.23461914 C10.47943604 2.09494751 10.47943604 2.09494751 11.1015625 2.97265625 C11.81554199 3.93196045 11.81554199 3.93196045 12.54394531 4.91064453 C13.02444336 5.60013184 13.50494141 6.28961914 14 7 C15.06788585 8.39639037 16.13824047 9.79089589 17.2109375 11.18359375 C18.2685718 12.5993659 19.32273722 14.01773096 20.375 15.4375 C22.23125 17.933125 24.0875 20.42875 26 23 C26.33 15.41 26.66 7.82 27 0 C30.3 0 33.6 0 37 0 C37 14.52 37 29.04 37 44 C29.08 44.495 29.08 44.495 21 45 C21 44.67 21 44.34 21 44 C23.475 43.505 23.475 43.505 26 43 C24.58590784 39.9808834 22.92284385 37.36468763 20.9609375 34.671875 C20.43806152 33.9509668 19.91518555 33.23005859 19.37646484 32.48730469 C18.71598145 31.58399414 18.05549805 30.68068359 17.375 29.75 C15.27125 26.8625 13.1675 23.975 11 21 C10.67 28.59 10.34 36.18 10 44 C6.7 44 3.4 44 0 44 C0 29.48 0 14.96 0 0 Z " fill="#000000" transform="translate(400,124)"/>
<path d="M0 0 C5.96420866 5.69941293 8.98164064 10.5271639 9.3125 18.875 C9.12666191 25.76133358 7.5001038 30.69680453 2.8125 35.8125 C-1.78193215 40.04905006 -6.28439978 41.7037527 -12.4375 42.375 C-21.00462496 41.47319737 -25.88891924 39.11694133 -31.40234375 32.33203125 C-34.97815501 27.1125708 -35.87166111 21.2133792 -35 15 C-33.10063942 7.35447259 -29.61632036 2.30248432 -23 -2 C-15.65876512 -5.26277106 -6.65284562 -4.58307143 0 0 Z M-22.8125 11.0625 C-24.56145839 15.38887075 -24.56134928 19.39541875 -24 24 C-22.43337356 27.68157213 -20.5823279 30.16042622 -17 32 C-11.88949164 32.65942043 -10.02413648 32.64482667 -5.625 29.875 C-2.4050369 26.34837375 -1.09146609 23.85259868 -0.9375 19.05078125 C-1.27171174 13.56761985 -3.15487496 10.84512504 -7 7 C-13.07877733 3.96061134 -18.63378977 6.30741595 -22.8125 11.0625 Z " fill="#000000" transform="translate(542,194)"/>
<path d="M0 0 C22 0 22 0 30 4 C33.74407512 7.74407512 34.29712053 10.87729347 34.5 16 C34.32274878 21.28471225 33.63572383 24.15652052 30 28 C29.01 28.33 28.02 28.66 27 29 C27.5775 29.91523438 28.155 30.83046875 28.75 31.7734375 C29.5002341 32.97381205 30.25022133 34.17434092 31 35.375 C31.57234375 36.27992188 31.57234375 36.27992188 32.15625 37.203125 C35 41.7734375 35 41.7734375 35 44 C31.14393302 44.69032664 27.82271247 44.96214414 24 44 C21.74380364 41.3339783 20.26836332 38.59718133 18.63671875 35.515625 C17.25094892 32.90986781 17.25094892 32.90986781 15.01953125 32.046875 C12.88264447 31.7316175 12.88264447 31.7316175 10 32 C10 35.96 10 39.92 10 44 C6.7 44 3.4 44 0 44 C0 29.48 0 14.96 0 0 Z M10 9 C10 13.62 10 18.24 10 23 C16.64621199 23.59564456 16.64621199 23.59564456 22.625 21.375 C24.39852706 18.31163508 24.51924297 16.48634568 24 13 C22.14657225 10.44050454 21.06243607 10.02081202 18 9 C16.60560336 8.93334624 15.20830125 8.91461801 13.8125 8.9375 C12.554375 8.958125 11.29625 8.97875 10 9 Z " fill="#000000" transform="translate(557,191)"/>
<path d="M0 0 C10.23 0 20.46 0 31 0 C31 2.97 31 5.94 31 9 C24.07 9 17.14 9 10 9 C10 11.64 10 14.28 10 17 C15.94 17 21.88 17 28 17 C28 19.97 28 22.94 28 26 C22.06 26 16.12 26 10 26 C10 28.64 10 31.28 10 34 C10.63091553 33.99476318 11.26183105 33.98952637 11.91186523 33.98413086 C14.75373347 33.96342174 17.59558588 33.95035934 20.4375 33.9375 C21.92733398 33.92493164 21.92733398 33.92493164 23.44726562 33.91210938 C24.39150391 33.90888672 25.33574219 33.90566406 26.30859375 33.90234375 C27.18314209 33.89710693 28.05769043 33.89187012 28.95874023 33.88647461 C31 34 31 34 32 35 C32 37.97 32 40.94 32 44 C21.44 44 10.88 44 0 44 C0 29.48 0 14.96 0 0 Z " fill="#000000" transform="translate(509,258)"/>
<path d="M0 0 C9.9 0 19.8 0 30 0 C30 2.97 30 5.94 30 9 C23.4 9 16.8 9 10 9 C10 11.64 10 14.28 10 17 C15.94 17 21.88 17 28 17 C28 19.97 28 22.94 28 26 C22.06 26 16.12 26 10 26 C10 28.64 10 31.28 10 34 C16.93 34 23.86 34 31 34 C31 37.3 31 40.6 31 44 C20.77 44 10.54 44 0 44 C0 29.48 0 14.96 0 0 Z " fill="#000000" transform="translate(439,258)"/>
<path d="M0 0 C10.23 0 20.46 0 31 0 C31 2.97 31 5.94 31 9 C24.07 9 17.14 9 10 9 C10 11.64 10 14.28 10 17 C15.94 17 21.88 17 28 17 C28 19.97 28 22.94 28 26 C22.06 26 16.12 26 10 26 C10 28.97 10 31.94 10 35 C17.26 35 24.52 35 32 35 C32 37.97 32 40.94 32 44 C21.44 44 10.88 44 0 44 C0 29.48 0 14.96 0 0 Z " fill="#000000" transform="translate(597,191)"/>
<path d="M0 0 C3.3 0 6.6 0 10 0 C10.02505615 0.8878418 10.0501123 1.77568359 10.07592773 2.69042969 C10.17121797 5.99296037 10.27044207 9.29532459 10.37231445 12.59765625 C10.41555318 14.02534388 10.45723585 15.45307954 10.49731445 16.88085938 C10.55528602 18.93634496 10.61890175 20.99159128 10.68359375 23.046875 C10.72025146 24.28276367 10.75690918 25.51865234 10.79467773 26.79199219 C10.95979819 29.37187658 11.2464387 31.54355106 12 34 C13.60184626 34.1352403 15.20696626 34.23210847 16.8125 34.3125 C18.15248047 34.39951172 18.15248047 34.39951172 19.51953125 34.48828125 C22.17708445 34.24806103 22.17708445 34.24806103 23.62304688 31.89648438 C25.25755539 28.45822037 25.42805366 25.96636393 25.51171875 22.16796875 C25.54716797 20.87568359 25.58261719 19.58339844 25.61914062 18.25195312 C25.64223681 16.89714066 25.66501935 15.54232282 25.6875 14.1875 C25.72069761 12.81311883 25.75518953 11.43876829 25.79101562 10.06445312 C25.87341264 6.70971766 25.94259395 3.35524096 26 0 C29.3 0 32.6 0 36 0 C36.07462728 4.28666736 36.12882508 8.57298207 36.16479492 12.86010742 C36.17980313 14.31590368 36.20021633 15.77165532 36.22631836 17.22729492 C36.26305676 19.33002789 36.2798056 21.43215885 36.29296875 23.53515625 C36.3086792 24.797229 36.32438965 26.05930176 36.34057617 27.35961914 C35.71826631 34.01142009 33.19673379 38.66938851 28 43 C22.69721879 45.52259608 17.77694071 45.76864057 12 45 C7.16823439 43.27436943 4.72831582 41.04155608 1.79296875 36.84375 C-1.32044863 30.26922396 -0.41528196 22.60400577 -0.25 15.5 C-0.22990494 13.99481542 -0.21165948 12.48960495 -0.1953125 10.984375 C-0.15155298 7.32237263 -0.08269216 3.66135422 0 0 Z " fill="#000000" transform="translate(445,124)"/>
<path d="M0 0 C1.37478516 0.01740234 1.37478516 0.01740234 2.77734375 0.03515625 C3.69644531 0.04417969 4.61554687 0.05320312 5.5625 0.0625 C6.27277344 0.07410156 6.98304688 0.08570313 7.71484375 0.09765625 C9.81491206 5.1328654 11.9145079 10.16827119 14.01367188 15.20385742 C14.7274101 16.91582526 15.44127594 18.62773989 16.15527344 20.33959961 C17.18328103 22.80438383 18.21082504 25.26936089 19.23828125 27.734375 C19.55606537 28.49602463 19.87384949 29.25767426 20.20126343 30.04240417 C20.78740488 31.44911417 21.37172429 32.85658544 21.95379639 34.26498413 C22.60190837 35.82569746 23.26541492 37.38000342 23.93212891 38.93286133 C24.71484375 41.09765625 24.71484375 41.09765625 24.71484375 44.09765625 C21.41484375 44.09765625 18.11484375 44.09765625 14.71484375 44.09765625 C13.39484375 41.12765625 12.07484375 38.15765625 10.71484375 35.09765625 C5.10484375 34.76765625 -0.50515625 34.43765625 -6.28515625 34.09765625 C-6.75953125 35.56203125 -7.23390625 37.02640625 -7.72265625 38.53515625 C-9.16015625 42.97265625 -9.16015625 42.97265625 -10.28515625 44.09765625 C-11.97124591 44.16971136 -13.66016284 44.18151693 -15.34765625 44.16015625 C-16.26675781 44.15113281 -17.18585937 44.14210938 -18.1328125 44.1328125 C-18.84308594 44.12121094 -19.55335938 44.10960937 -20.28515625 44.09765625 C-17.72982765 35.84489129 -14.4339915 27.92224256 -11.13232422 19.94726562 C-10.15170729 17.57723616 -9.17712623 15.20478612 -8.203125 12.83203125 C-7.58238526 11.32667689 -6.96130414 9.82146324 -6.33984375 8.31640625 C-6.04818329 7.60609253 -5.75652283 6.89577881 -5.45602417 6.16394043 C-2.94912523 0.12603099 -2.94912523 0.12603099 0 0 Z M1.71484375 12.09765625 C0.06484375 16.71765625 -1.58515625 21.33765625 -3.28515625 26.09765625 C0.34484375 26.09765625 3.97484375 26.09765625 7.71484375 26.09765625 C6.06484375 21.47765625 4.41484375 16.85765625 2.71484375 12.09765625 C2.38484375 12.09765625 2.05484375 12.09765625 1.71484375 12.09765625 Z " fill="#000000" transform="translate(614.28515625,257.90234375)"/>
<path d="M0 0 C3.00798865 -0.40721868 5.97321367 -0.12971941 9 0 C13.16531781 8.79032791 17.01879007 17.66059626 20.63452148 26.68823242 C21.45341672 28.72712968 22.28423787 30.76093132 23.11523438 32.79492188 C23.63874764 34.09606197 24.16156219 35.39748347 24.68359375 36.69921875 C25.15337646 37.86283936 25.62315918 39.02645996 26.10717773 40.2253418 C27 43 27 43 26 45 C22.7 44.67 19.4 44.34 16 44 C15.01 41.03 14.02 38.06 13 35 C4.585 35.495 4.585 35.495 -4 36 C-4.99 38.64 -5.98 41.28 -7 44 C-12.445 44.495 -12.445 44.495 -18 45 C-17.32609094 41.63045472 -16.78449348 39.15113002 -15.54125977 36.08349609 C-15.2474794 35.352789 -14.95369904 34.62208191 -14.65101624 33.86923218 C-14.33434494 33.09511993 -14.01767365 32.32100769 -13.69140625 31.5234375 C-13.36462387 30.7163736 -13.03784149 29.90930969 -12.70115662 29.07778931 C-12.01148035 27.37749068 -11.319626 25.67807409 -10.62573242 23.97949219 C-9.56425725 21.37930456 -8.51113647 18.77584703 -7.45898438 16.171875 C-6.78695324 14.51802798 -6.11444349 12.86437534 -5.44140625 11.2109375 C-5.12675919 10.43277679 -4.81211212 9.65461609 -4.4879303 8.85287476 C-3.18805726 5.68167743 -1.90730507 2.8609576 0 0 Z M4 13 C3.16235732 14.95649397 2.33000941 16.91525556 1.5 18.875 C1.0359375 19.96554688 0.571875 21.05609375 0.09375 22.1796875 C-1.12052456 24.80661929 -1.12052456 24.80661929 -1 27 C2.63 27 6.26 27 10 27 C8.35 22.38 6.7 17.76 5 13 C4.67 13 4.34 13 4 13 Z " fill="#000000" transform="translate(537,124)"/>
<path d="M0 0 C1.3303125 0.7425 1.3303125 0.7425 2.6875 1.5 C1.8125 8.25 1.8125 8.25 0.6875 10.5 C-0.281875 10.17 -1.25125 9.84 -2.25 9.5 C-6.61016837 8.23126248 -10.80804566 8.31614472 -15.3125 8.5 C-15.6425 10.15 -15.9725 11.8 -16.3125 13.5 C-15.21550781 13.86351562 -14.11851562 14.22703125 -12.98828125 14.6015625 C-11.53350933 15.10838627 -10.07910099 15.61625449 -8.625 16.125 C-7.90376953 16.36089844 -7.18253906 16.59679687 -6.43945312 16.83984375 C-1.13094137 18.73054657 1.56463265 20.76746936 4.6875 25.5 C5.6412588 28.64900253 5.47314504 31.31315813 4.6875 34.5 C1.99001201 39.21613795 -1.11852011 41.86826295 -6.3125 43.5 C-14.47090112 44.49239391 -21.00101247 43.12339205 -28.3125 39.5 C-27.82671457 36.37709365 -27.3138988 33.50419641 -26.3125 30.5 C-23.68392518 30.95061283 -21.43209608 31.44505045 -19 32.5625 C-15.26876306 33.86409428 -12.26148719 33.69421248 -8.3125 33.5 C-7.3225 33.005 -7.3225 33.005 -6.3125 32.5 C-6.3125 31.18 -6.3125 29.86 -6.3125 28.5 C-7.33730469 28.18546875 -8.36210937 27.8709375 -9.41796875 27.546875 C-10.77882713 27.11515441 -12.13949427 26.68283066 -13.5 26.25 C-14.17353516 26.04503906 -14.84707031 25.84007812 -15.54101562 25.62890625 C-19.82416902 24.24993979 -23.05760909 22.7428134 -26.3125 19.5 C-28.4608296 15.09755185 -28.55217969 11.36002712 -27.25 6.6875 C-21.60131231 -2.60550233 -9.70847086 -4.22627479 0 0 Z " fill="#000000" transform="translate(514.3125,125.5)"/>
<path d="M0 0 C11.55 0 23.1 0 35 0 C35 2.97 35 5.94 35 9 C29.06 9.495 29.06 9.495 23 10 C23 21.22 23 32.44 23 44 C19.37 44 15.74 44 12 44 C12 32.45 12 20.9 12 9 C8.04 9 4.08 9 0 9 C0 6.03 0 3.06 0 0 Z " fill="#000000" transform="translate(400,191)"/>
<path d="M0 0 C11.55 0 23.1 0 35 0 C35 2.97 35 5.94 35 9 C29.06 9.495 29.06 9.495 23 10 C23.00785522 11.49164673 23.00785522 11.49164673 23.01586914 13.01342773 C23.03392041 16.69033921 23.04543246 20.36724675 23.05493164 24.04418945 C23.05997157 25.63794614 23.0668035 27.23169819 23.07543945 28.82543945 C23.08751999 31.11150253 23.09323155 33.39750467 23.09765625 35.68359375 C23.10281754 36.40026718 23.10797882 37.11694061 23.11329651 37.85533142 C23.11349263 39.57063672 23.06192007 41.28581266 23 43 C22.67 43.33 22.34 43.66 22 44 C18.7 44 15.4 44 12 44 C12 32.45 12 20.9 12 9 C8.04 9 4.08 9 0 9 C0 6.03 0 3.06 0 0 Z " fill="#000000" transform="translate(400,258)"/>
<path d="M0 0 C11.55 0 23.1 0 35 0 C35 2.97 35 5.94 35 9 C30.71 9 26.42 9 22 9 C22 20.55 22 32.1 22 44 C18.7 44 15.4 44 12 44 C12 32.45 12 20.9 12 9 C8.04 9 4.08 9 0 9 C0 6.03 0 3.06 0 0 Z " fill="#000000" transform="translate(636,258)"/>
<path d="M0 0 C3.3 0 6.6 0 10 0 C10 11.22 10 22.44 10 34 C16.27 34 22.54 34 29 34 C29 37.3 29 40.6 29 44 C19.43 44 9.86 44 0 44 C0 29.48 0 14.96 0 0 Z " fill="#000000" transform="translate(476,258)"/>
<path d="M0 0 C3.63 0 7.26 0 11 0 C11.02464513 6.1055471 11.04283371 12.21106551 11.05493164 18.31665039 C11.05997288 20.39543156 11.06680574 22.47420916 11.07543945 24.55297852 C11.08751422 27.53402586 11.09323024 30.51502649 11.09765625 33.49609375 C11.10281754 34.43150497 11.10797882 35.3669162 11.11329651 36.33067322 C11.11337204 37.19149002 11.11344757 38.05230682 11.11352539 38.93920898 C11.115746 39.70087875 11.11796661 40.46254852 11.12025452 41.24729919 C11 43 11 43 10 44 C6.7 44 3.4 44 0 44 C0 29.48 0 14.96 0 0 Z " fill="#000000" transform="translate(674,258)"/>
<path d="M0 0 C2.7890625 -0.24609375 2.7890625 -0.24609375 6 0 C21.68548784 13.582965 28.2354443 45.35025632 30 65 C30.26459797 70.33885021 30.19641944 75.66030118 30 81 C28.68 81 27.36 81 26 81 C24.44569267 79.44569267 24.74753094 77.85012198 24.60546875 75.6875 C22.7187854 49.92276813 16.39673015 24.96621524 1.06640625 3.671875 C0 2 0 2 0 0 Z " fill="#261B6F" transform="translate(344,127)"/>
<path d="M0 0 C3.3 0 6.6 0 10 0 C10 14.52 10 29.04 10 44 C6.7 44 3.4 44 0 44 C0 29.48 0 14.96 0 0 Z " fill="#000000" transform="translate(439,191)"/>
</svg>
