<?xml version="1.0" encoding="UTF-8"?>
<svg version="1.1" xmlns="http://www.w3.org/2000/svg" width="417" height="346">
<path d="M0 0 C137.61 0 275.22 0 417 0 C417 114.18 417 228.36 417 346 C279.39 346 141.78 346 0 346 C0 231.82 0 117.64 0 0 Z " fill="#FDCC08" transform="translate(0,0)"/>
<path d="M0 0 C2.72811703 -0.05248188 5.45521458 -0.09082647 8.18359375 -0.12109375 C8.95199585 -0.13732788 9.72039795 -0.15356201 10.51208496 -0.17028809 C18.22614481 -0.23445118 22.65190639 1.77634881 28.20703125 7.125 C33.7327342 13.01908315 37.35272028 18.16155836 37.40625 26.47265625 C37.42816406 27.70306641 37.45007813 28.93347656 37.47265625 30.20117188 C37.48167969 31.47541016 37.49070313 32.74964844 37.5 34.0625 C37.59564391 47.28185419 37.96899702 61.45068429 47 72 C55.05162863 78.401199 65.54024236 80.44985272 75.58056641 80.43237305 C76.92874954 80.44766052 76.92874954 80.44766052 78.3041687 80.46325684 C81.23669875 80.49313872 84.16890087 80.5026145 87.1015625 80.51171875 C89.14994369 80.52858386 91.19831464 80.54673655 93.24667358 80.56611633 C98.60920005 80.61342342 103.971685 80.6433573 109.33435059 80.66955566 C114.81803582 80.69945891 120.30157832 80.74595552 125.78515625 80.79101562 C136.52336253 80.87682908 147.26159836 80.94427163 158 81 C157.99000725 80.14674889 157.99000725 80.14674889 157.97981262 79.27626038 C157.91311791 73.3221709 157.86805859 67.36818865 157.83520508 61.41381836 C157.82017723 59.1956755 157.79974923 56.97756207 157.77368164 54.75952148 C157.73703376 51.55965892 157.72021312 48.36019139 157.70703125 45.16015625 C157.69154739 44.17854019 157.67606354 43.19692413 157.66011047 42.18556213 C157.65735161 30.73709461 161.90898723 19.3096888 170 11 C178.33601649 4.23453734 185.25866132 0.91795733 196 1 C196.07036008 18.06469292 196.12311951 35.12933999 196.15543652 52.1941452 C196.17084667 60.11922582 196.19182291 68.04421585 196.22631836 75.96923828 C196.25640138 82.88389322 196.27561742 89.79848248 196.28226548 96.71320105 C196.28614606 100.36797063 196.29514063 104.02255248 196.31719017 107.67726135 C196.45298682 131.11959478 196.3943032 154.6504854 181 174 C180.34 174 179.68 174 179 174 C178.74476563 174.58910156 178.48953125 175.17820313 178.2265625 175.78515625 C172.274051 186.53379963 157.99836175 191.74164959 147 195 C139.01962978 197.08295536 131.33167415 197.26375376 123.1171875 197.1953125 C121.82177032 197.1924826 120.52635315 197.18965271 119.19168091 197.18673706 C115.78210435 197.17917608 112.3727038 197.15959446 108.9631958 197.1373291 C105.47027974 197.11670627 101.97733466 197.10770055 98.484375 197.09765625 C91.65617864 197.07633973 84.82809782 197.04229736 78 197 C77.94397795 194.6142527 77.90324419 192.22984153 77.87109375 189.84375 C77.85381226 189.1744043 77.83653076 188.50505859 77.81872559 187.81542969 C77.73618797 179.63169978 80.88543805 174.02506277 86.3125 168.125 C91.46666019 163.34302205 97.97399943 159.96362764 105.0703125 159.7890625 C105.87621826 159.76287842 106.68212402 159.73669434 107.51245117 159.7097168 C108.37459229 159.68176025 109.2367334 159.65380371 110.125 159.625 C131.91537804 158.99602787 131.91537804 158.99602787 150.375 148.9375 C155.57218153 142.11349988 156.13551237 133.90033054 156.57421875 125.62109375 C156.6165564 124.88532104 156.65889404 124.14954834 156.70251465 123.39147949 C156.80538519 121.59452814 156.90321364 119.79728932 157 118 C155.80999893 118.00888245 154.61999786 118.01776489 153.39393616 118.0269165 C142.11200253 118.10843552 130.83012962 118.16817172 119.54796696 118.20724869 C113.7493812 118.22801474 107.95103553 118.25612907 102.15258789 118.30175781 C96.54395161 118.34561055 90.93554446 118.3692194 85.3267498 118.37950897 C83.20000038 118.38683022 81.07326174 118.40112407 78.9466114 118.42292023 C56.71421217 118.64146486 35.9154797 115.69875648 19.27734375 99.53125 C11.37503212 90.74789161 6.0822459 81.48935306 3 70 C2.62851585 68.64410515 2.62851585 68.64410515 2.24952698 67.26081848 C0.18655355 59.13320409 -0.40272647 51.62411501 -0.29296875 43.26171875 C-0.28872391 42.01493851 -0.28447906 40.76815826 -0.28010559 39.4835968 C-0.26348433 35.5513328 -0.22586318 31.61960574 -0.1875 27.6875 C-0.17071336 25.0006641 -0.15854037 22.31381388 -0.14648438 19.62695312 C-0.11363521 13.08445617 -0.06360397 6.54226647 0 0 Z " fill="#2C1A49" transform="translate(187,36)"/>
<path d="M0 0 C0.02342809 23.67974539 0.04102765 47.35948903 0.05181217 71.0392437 C0.05695415 82.03576929 0.0639566 93.03228765 0.07543945 104.02880859 C0.08545067 113.62065356 0.09186866 123.21249329 0.09408849 132.80434334 C0.09538473 137.87650522 0.09840098 142.94865212 0.10573006 148.02080917 C0.11259218 152.80927699 0.11459655 157.59772387 0.11310768 162.38619614 C0.11337948 164.1298738 0.11532346 165.87355228 0.11920547 167.61722565 C0.13759834 176.31628498 0.02918931 184.98732749 -0.43287659 193.67556763 C-0.48871333 194.75200383 -0.48871333 194.75200383 -0.54567808 195.85018623 C-2.12399587 222.46924741 -13.17440574 245.8784061 -32.3125 264.375 C-45.90944311 275.85578202 -60.75461704 277.32109051 -77.9140625 277.23046875 C-79.42052165 277.229274 -80.92698156 277.22882441 -82.43344116 277.2290802 C-85.56488822 277.22752801 -88.69621889 277.21932866 -91.82763672 277.20581055 C-95.8482907 277.18867475 -99.86881915 277.18500106 -103.88950539 277.18575573 C-106.9880392 277.18548471 -110.08654538 277.18001697 -113.18507004 277.17275429 C-114.6690996 277.16956815 -116.15313228 277.16760034 -117.63716507 277.16686058 C-119.69778117 277.16470473 -121.75826068 277.1559815 -123.81884766 277.14526367 C-124.99146149 277.14145187 -126.16407532 277.13764008 -127.3722229 277.13371277 C-130 277 -130 277 -131 276 C-131.9896343 267.47391986 -129.94752847 260.29894802 -124.875 253.4375 C-111.28018893 237.0664854 -94.40773608 233.20795899 -74 231 C-70.02116764 230.76736509 -66.03650804 230.61111882 -62.05053711 230.64208984 C-56.43700015 230.53362201 -52.96387341 228.8015668 -49 225 C-39.63101636 210.81268192 -38.65519182 189.74211172 -38.82055664 173.31958008 C-38.82750579 171.34197259 -38.83445244 169.36436508 -38.84130561 167.38675725 C-38.85047737 165.29081939 -38.86464152 163.19496896 -38.88023567 161.0990696 C-38.91249385 156.69470275 -38.92765069 152.29037098 -38.94029236 147.88591003 C-38.97412826 136.94701623 -39.02669859 126.00822334 -39.0894165 115.06945801 C-39.13818035 106.55889635 -39.18014539 98.04842781 -39.20092481 89.53774565 C-39.21044783 85.88584881 -39.22583461 82.23419583 -39.25605965 78.582407 C-39.67431297 27.14833454 -39.67431297 27.14833454 -24 11 C-17.33675594 4.65225045 -9.3943015 0 0 0 Z " fill="#2D1B4A" transform="translate(164,35)"/>
<path d="M0 0 C1.4422663 0.14799442 2.88417668 0.29946017 4.32592773 0.45239258 C5.12892807 0.53636795 5.93192841 0.62034332 6.75926208 0.7068634 C16.91211315 2.03507416 25.50294411 8.49131364 31.75390625 16.30078125 C39.86210754 27.35741937 38.34786235 42.85135434 38.38085938 55.95117188 C38.20041301 70.41601614 38.20041301 70.41601614 44.70825195 82.89013672 C52.58694682 90.20450146 62.1001794 92.33179436 72.53125 92.23046875 C73.32543335 92.23001053 74.1196167 92.22955231 74.93786621 92.2290802 C76.61191306 92.22607663 78.28595759 92.21824766 79.95996094 92.20581055 C82.46560085 92.18774798 84.97086469 92.18530015 87.4765625 92.18554688 C95.08234035 92.16848798 102.64973007 92.02834533 110.23828125 91.5 C118.06144897 90.95728181 125.84715913 90.81643 133.6875 90.8125 C135.63366211 90.79413086 135.63366211 90.79413086 137.61914062 90.77539062 C152.88713636 90.75240819 170.46103662 91.85698248 182.5625 102.1875 C190.37497943 111.20189934 194.08591243 119.12223043 194 131 C177.7003195 131.02345091 161.40064454 131.04103869 145.10095119 131.05181217 C137.5312436 131.05694938 129.96154653 131.06394249 122.3918457 131.07543945 C115.7874013 131.08546552 109.18296453 131.09187212 102.57851273 131.09408849 C99.08760987 131.09538226 95.59672885 131.09838228 92.10583305 131.10573006 C40.67380139 131.20931343 40.67380139 131.20931343 24 117 C24 116.34 24 115.68 24 115 C23.13375 114.63648438 23.13375 114.63648438 22.25 114.265625 C11.30752733 108.11048413 4.73238635 93.42753826 1.44042969 81.88818359 C-0.55221667 73.761143 -0.37606281 65.72280035 -0.29296875 57.421875 C-0.2873602 55.75751125 -0.28309607 54.09314248 -0.28010559 52.42877197 C-0.26875572 48.08866235 -0.23937587 43.74886311 -0.20599365 39.40887451 C-0.1750778 34.96403194 -0.16155469 30.51913829 -0.14648438 26.07421875 C-0.11449469 17.38267147 -0.06342075 8.69137455 0 0 Z " fill="#2C194A" transform="translate(188,181)"/>
<path d="M0 0 C137.61 0 275.22 0 417 0 C417 114.18 417 228.36 417 346 C414.69 346 412.38 346 410 346 C410.81190481 345.28492814 411.62380962 344.56985628 412.46031761 343.83311558 C416.54563907 338.8701158 415.6884459 332.78808012 415.63491821 326.67015076 C415.64068158 325.29496687 415.64862416 323.91979069 415.65855443 322.54463059 C415.67942181 318.77090563 415.66911361 314.99781311 415.65362334 311.22408593 C415.64231324 307.15243954 415.65977075 303.08090211 415.67352295 299.00927734 C415.69576299 291.03531753 415.69095097 283.06159294 415.67645974 275.08762389 C415.66517129 268.60800323 415.66363489 262.12844854 415.66907883 255.64882088 C415.66984499 254.72688214 415.67061116 253.8049434 415.67140054 252.85506712 C415.67299915 250.98222396 415.67462022 249.10938082 415.6762635 247.2365377 C415.69052304 229.67281663 415.67412465 212.10922601 415.64726166 194.54552633 C415.62491898 179.47047112 415.62880583 164.39560839 415.65185547 149.32055664 C415.67860346 131.81847036 415.68915363 114.3164984 415.67379415 96.81439453 C415.67220138 94.94871749 415.67062953 93.08304043 415.66907883 91.21736336 C415.66830745 90.29938813 415.66753607 89.38141289 415.66674132 88.43562023 C415.66242159 81.96221927 415.66971667 75.48889076 415.68147659 69.01550102 C415.69548886 61.12887061 415.69172843 53.24248907 415.66507287 45.35588723 C415.65191795 41.33088214 415.6468105 37.30629222 415.66331863 33.28129005 C415.67819694 29.59801824 415.67006637 25.91554717 415.64343087 22.23234821 C415.63518272 20.2659251 415.65154273 18.29944659 415.66871703 16.33308119 C415.64915892 14.58374252 415.64915892 14.58374252 415.6292057 12.79906368 C415.62839394 11.79263976 415.62758218 10.78621584 415.62674582 9.74929422 C414.73802001 5.85079396 413.17008209 4.38323446 410 2 C406.71917843 1.26060537 406.71917843 1.26060537 403.05972576 1.38476086 C402.3701652 1.37899164 401.68060463 1.37322241 400.9701483 1.36727837 C398.65394647 1.35401788 396.33947438 1.37649047 394.02336121 1.39872742 C392.34849764 1.3965474 390.67363573 1.39217016 388.99878293 1.38578159 C384.39222446 1.37458484 379.78624565 1.39462368 375.17976105 1.41967189 C370.21388574 1.44123419 365.24804396 1.43395946 360.28213501 1.43016052 C351.67701134 1.42753686 343.07207701 1.4432442 334.46700096 1.47134972 C322.02548869 1.51195921 309.58406811 1.52500433 297.14249674 1.53128967 C276.95765749 1.54223686 256.77291919 1.57552258 236.58813477 1.62280273 C216.97876491 1.66868734 197.36942246 1.70408464 177.76000977 1.7253418 C176.55159017 1.72665541 175.34317058 1.72796903 174.09813222 1.72932246 C168.0359367 1.73584757 161.97374099 1.74216613 155.91154516 1.74838197 C105.607627 1.80022818 55.30381842 1.88830504 5 2 C2.76755753 6.31605544 1.87466626 9.62601401 1.86857224 14.49329185 C1.86473109 15.64221865 1.86088995 16.79114545 1.8569324 17.97488821 C1.85779888 19.24286107 1.85866537 20.51083394 1.85955811 21.81723022 C1.85697501 23.17331611 1.85396201 24.52940123 1.8505547 25.88548529 C1.842475 29.62017578 1.8406946 33.35484706 1.83995724 37.08954525 C1.83810839 41.11417088 1.83056197 45.13878651 1.82382202 49.16340637 C1.81023183 57.96700131 1.80421307 66.7705917 1.79981136 75.57419538 C1.7970504 81.0687377 1.79281335 86.56327825 1.78830719 92.05781937 C1.7761142 107.26392952 1.76581457 122.47003825 1.7624321 137.67615318 C1.76221253 138.64963411 1.76199297 139.62311504 1.76176675 140.62609539 C1.76154847 141.60193168 1.76133019 142.57776797 1.7611053 143.58317506 C1.76066183 145.56065838 1.76021527 147.53814169 1.75976562 149.515625 C1.7595442 150.4965292 1.75932277 151.47743341 1.75909463 152.48806198 C1.75514502 168.3889364 1.73768616 184.28976505 1.7144061 200.19062178 C1.69071003 216.50699178 1.67823106 232.82333879 1.67706418 249.13972628 C1.6761465 258.30437184 1.67037069 267.46895773 1.65224457 276.63358688 C1.63686718 284.43604454 1.63170915 292.23842409 1.63998267 300.04089402 C1.64389743 304.02326717 1.64291951 308.00548291 1.62892532 311.98783684 C1.6162358 315.63217065 1.61733998 319.27622799 1.62951604 322.92056115 C1.63241417 324.86626004 1.62049991 326.81196349 1.60809398 328.75762498 C1.61468382 329.91176727 1.62127367 331.06590956 1.6280632 332.25502586 C1.62746611 333.25092495 1.62686903 334.24682404 1.62625384 335.27290189 C2.25132205 339.83381117 4.64482262 342.96436332 8 346 C5.36 346 2.72 346 0 346 C0 231.82 0 117.64 0 0 Z " fill="#FDE652" transform="translate(0,0)"/>
<path d="M0 0 C2.64 0 5.28 0 8 0 C8 0.66 8 1.32 8 2 C7.01 2 6.02 2 5 2 C2.76755753 6.31605544 1.87466626 9.62601401 1.86857224 14.49329185 C1.86473109 15.64221865 1.86088995 16.79114545 1.8569324 17.97488821 C1.85779888 19.24286107 1.85866537 20.51083394 1.85955811 21.81723022 C1.85697501 23.17331611 1.85396201 24.52940123 1.8505547 25.88548529 C1.842475 29.62017578 1.8406946 33.35484706 1.83995724 37.08954525 C1.83810839 41.11417088 1.83056197 45.13878651 1.82382202 49.16340637 C1.81023183 57.96700131 1.80421307 66.7705917 1.79981136 75.57419538 C1.7970504 81.0687377 1.79281335 86.56327825 1.78830719 92.05781937 C1.7761142 107.26392952 1.76581457 122.47003825 1.7624321 137.67615318 C1.76221253 138.64963411 1.76199297 139.62311504 1.76176675 140.62609539 C1.76154847 141.60193168 1.76133019 142.57776797 1.7611053 143.58317506 C1.76066183 145.56065838 1.76021527 147.53814169 1.75976562 149.515625 C1.7595442 150.4965292 1.75932277 151.47743341 1.75909463 152.48806198 C1.75514502 168.3889364 1.73768616 184.28976505 1.7144061 200.19062178 C1.69071003 216.50699178 1.67823106 232.82333879 1.67706418 249.13972628 C1.6761465 258.30437184 1.67037069 267.46895773 1.65224457 276.63358688 C1.63686718 284.43604454 1.63170915 292.23842409 1.63998267 300.04089402 C1.64389743 304.02326717 1.64291951 308.00548291 1.62892532 311.98783684 C1.6162358 315.63217065 1.61733998 319.27622799 1.62951604 322.92056115 C1.63241417 324.86626004 1.62049991 326.81196349 1.60809398 328.75762498 C1.61468382 329.91176727 1.62127367 331.06590956 1.6280632 332.25502586 C1.62746611 333.25092495 1.62686903 334.24682404 1.62625384 335.27290189 C2.25132205 339.83381117 4.64482262 342.96436332 8 346 C5.36 346 2.72 346 0 346 C0 231.82 0 117.64 0 0 Z " fill="#FDF57A" transform="translate(0,0)"/>
<path d="M0 0 C0.33 0 0.66 0 1 0 C1 110.88 1 221.76 1 336 C-1.31 336 -3.62 336 -6 336 C-5.18818425 335.28327307 -4.3763685 334.56654613 -3.53995228 333.8281002 C0.53177563 328.88207611 -0.30936267 322.84985092 -0.36076355 316.75039673 C-0.35444961 315.3840228 -0.34594535 314.01765753 -0.33544332 312.65130937 C-0.31295185 308.90214713 -0.32149695 305.15360091 -0.3351289 301.40441966 C-0.3443926 297.35944334 -0.32484726 293.31459411 -0.30880737 289.26965332 C-0.28496446 282.26337684 -0.27935935 275.25727629 -0.28615379 268.25096512 C-0.29595098 258.12106587 -0.27822383 247.99136178 -0.25378648 237.86149411 C-0.21488545 221.42637588 -0.19823327 204.99131345 -0.19555664 188.55615234 C-0.192909 172.59127948 -0.179793 156.62647181 -0.15258789 140.66162109 C-0.15091451 139.67748889 -0.14924113 138.69335669 -0.14751705 137.67940231 C-0.13905755 132.74228229 -0.13039215 127.80516266 -0.12162435 122.86804318 C-0.04915729 81.91203983 -0.01279116 40.95606268 0 0 Z " fill="#FDD42C" transform="translate(416,10)"/>
<path d="M0 0 C5.52541486 6.05164485 6.06981893 13.217913 6 21 C-10.2996805 21.02345091 -26.59935546 21.04103869 -42.89904881 21.05181217 C-50.4687564 21.05694938 -58.03845347 21.06394249 -65.6081543 21.07543945 C-72.2125987 21.08546552 -78.81703547 21.09187212 -85.42148727 21.09408849 C-88.91239013 21.09538226 -92.40327115 21.09838228 -95.89416695 21.10573006 C-123.83707498 21.16236301 -123.83707498 21.16236301 -136 20 C-136 19.67 -136 19.34 -136 19 C-90.13 18.67 -44.26 18.34 3 18 C2.67 14.7 2.34 11.4 2 8 C0.02 8 -1.96 8 -4 8 C-4 7.01 -4 6.02 -4 5 C-3.01 4.34 -2.02 3.68 -1 3 C-0.67 2.01 -0.34 1.02 0 0 Z " fill="#553C48" transform="translate(376,291)"/>
<path d="M0 0 C0.99 0 1.98 0 3 0 C3 0.66 3 1.32 3 2 C3.928125 1.79375 4.85625 1.5875 5.8125 1.375 C9 1 9 1 12 3 C11.03900391 3.60134766 11.03900391 3.60134766 10.05859375 4.21484375 C2.58198398 9.12868117 -2.08370632 14.62555949 -7 22 C-7 20.68 -7 19.36 -7 18 C-7.66 18 -8.32 18 -9 18 C-9 16.68 -9 15.36 -9 14 C-8.34 14 -7.68 14 -7 14 C-7 13.34 -7 12.68 -7 12 C-6.34 12 -5.68 12 -5 12 C-5 12.66 -5 13.32 -5 14 C-4.34 14 -3.68 14 -3 14 C-3 12.68 -3 11.36 -3 10 C-4.32 10 -5.64 10 -7 10 C-6.52727227 5.74545047 -4.03562624 3.80795427 -1 1 C-0.67 0.67 -0.34 0.34 0 0 Z " fill="#FCCC08" transform="translate(139,36)"/>
<path d="M0 0 C0.33 0 0.66 0 1 0 C1 14.85 1 29.7 1 45 C-2.37526398 40.49964803 -2.37526398 40.49964803 -2.26464844 36.88989258 C-2.24762878 36.09259232 -2.23060913 35.29529205 -2.21307373 34.47383118 C-2.17885315 33.6226622 -2.14463257 32.77149323 -2.109375 31.89453125 C-2.08530579 31.01472092 -2.06123657 30.13491058 -2.03643799 29.22843933 C-1.98286555 27.37317975 -1.9218837 25.5181213 -1.85400391 23.66333008 C-1.75001559 20.81292742 -1.66794586 17.96254648 -1.58984375 15.11132812 C-1.53512544 13.30985677 -1.47917859 11.50842222 -1.421875 9.70703125 C-1.39575134 8.84978958 -1.36962769 7.99254791 -1.3427124 7.10932922 C-1.11737405 1.11737405 -1.11737405 1.11737405 0 0 Z " fill="#DDAF22" transform="translate(187,199)"/>
<path d="M0 0 C0.99 0.33 1.98 0.66 3 1 C2.34 1 1.68 1 1 1 C0.773125 1.515625 0.54625 2.03125 0.3125 2.5625 C-0.81857512 4.66306808 -2.00219945 6.36076403 -3.4375 8.25 C-6.15441539 11.95561537 -7.55109377 15.65328131 -9 20 C-9.33 20 -9.66 20 -10 20 C-9.979375 18.824375 -9.95875 17.64875 -9.9375 16.4375 C-9.93052739 12.52586533 -10.35749657 8.85502056 -11 5 C-11.99 4.67 -12.98 4.34 -14 4 C-14 3.34 -14 2.68 -14 2 C-11.83125748 2.50603992 -10.00032373 2.99983813 -8 4 C-8 4.66 -8 5.32 -8 6 C-7.01 6 -6.02 6 -5 6 C-5.33 4.68 -5.66 3.36 -6 2 C-4.02 2 -2.04 2 0 2 C0 1.34 0 0.68 0 0 Z " fill="#F3C618" transform="translate(356,46)"/>
<path d="M0 0 C4.21814817 3.9700218 7.61227103 8.30840284 11 13 C9.02 12.34 7.04 11.68 5 11 C4.67 11.66 4.34 12.32 4 13 C3.34 13 2.68 13 2 13 C2 12.34 2 11.68 2 11 C0.02 11 -1.96 11 -4 11 C-3.690625 10.0925 -3.38125 9.185 -3.0625 8.25 C-2.46225605 6.41395969 -1.89405251 4.56443809 -1.4375 2.6875 C-1 1 -1 1 0 0 Z " fill="#F5C814" transform="translate(198,125)"/>
<path d="M0 0 C6.19518473 0.41588046 11.26689311 1.60251894 17 4 C17 4.99 17 5.98 17 7 C12.71 6.34 8.42 5.68 4 5 C4 5.66 4 6.32 4 7 C2.68 7.33 1.36 7.66 0 8 C0 5.36 0 2.72 0 0 Z " fill="#341D3F" transform="translate(188,181)"/>
<path d="M0 0 C0.66 0.33 1.32 0.66 2 1 C1.07011275 3.32471812 0.3827544 4.73065431 -1.6875 6.1875 C-4 7 -4 7 -7.6875 7.5 C-9.3271875 7.7475 -9.3271875 7.7475 -11 8 C-11.33 8.66 -11.66 9.32 -12 10 C-14.97 9.505 -14.97 9.505 -18 9 C-18 8.34 -18 7.68 -18 7 C-19.98 7 -21.96 7 -24 7 C-24 6.67 -24 6.34 -24 6 C-22.85402344 5.81824219 -21.70804687 5.63648438 -20.52734375 5.44921875 C-18.99731849 5.19577898 -17.4673748 4.94184643 -15.9375 4.6875 C-14.80924805 4.51057617 -14.80924805 4.51057617 -13.65820312 4.33007812 C-9.888976 3.6937151 -6.55508013 2.92124567 -3.06640625 1.33203125 C-1.54853516 0.67267578 -1.54853516 0.67267578 0 0 Z " fill="#34193D" transform="translate(332,189)"/>
<path d="M0 0 C-0.33 1.32 -0.66 2.64 -1 4 C-1.99 4 -2.98 4 -4 4 C-4.33 4.66 -4.66 5.32 -5 6 C-6.32 6 -7.64 6 -9 6 C-9 6.66 -9 7.32 -9 8 C-9.66 8 -10.32 8 -11 8 C-11.66 7.34 -12.32 6.68 -13 6 C-15.21072977 5.75746187 -15.21072977 5.75746187 -17.625 5.875 C-18.85089844 5.90207031 -18.85089844 5.90207031 -20.1015625 5.9296875 C-21.04128906 5.96449219 -21.04128906 5.96449219 -22 6 C-22 5.67 -22 5.34 -22 5 C-21.21496094 4.81824219 -20.42992187 4.63648438 -19.62109375 4.44921875 C-12.62517038 2.81455129 -12.62517038 2.81455129 -5.9375 0.25 C-3 -1 -3 -1 0 0 Z " fill="#F5C71C" transform="translate(351,226)"/>
<path d="M0 0 C3.69068595 3.57884698 7.09198395 7.33726742 10.44921875 11.23046875 C11.58693322 12.52866688 12.7794033 13.7794033 14 15 C12.02 15.99 12.02 15.99 10 17 C10 16.01 10 15.02 10 14 C9.34 14 8.68 14 8 14 C8 14.66 8 15.32 8 16 C6.68 16 5.36 16 4 16 C4 15.34 4 14.68 4 14 C4.66 14 5.32 14 6 14 C5.34 11.36 4.68 8.72 4 6 C2.68 6.33 1.36 6.66 0 7 C-1.125 2.25 -1.125 2.25 0 0 Z " fill="#F3C814" transform="translate(198,282)"/>
<path d="M0 0 C0.33 0 0.66 0 1 0 C1.31761795 6.56410424 0.71157209 12.66928825 -0.375 19.125 C-0.50108643 19.8763623 -0.62717285 20.62772461 -0.75708008 21.40185547 C-1.62217182 26.33336409 -2.7366685 31.15539835 -4 36 C-5.07880981 32.25069379 -4.77459419 29.60368621 -4.0625 25.75 C-3.86785156 24.67234375 -3.67320313 23.5946875 -3.47265625 22.484375 C-3.31667969 21.66453125 -3.16070312 20.8446875 -3 20 C-3.66 19.67 -4.32 19.34 -5 19 C-4.525625 18.05125 -4.05125 17.1025 -3.5625 16.125 C-1.84177122 12.17459449 -1.48560907 8.40720767 -1.2109375 4.13671875 C-1 2 -1 2 0 0 Z " fill="#ECC023" transform="translate(125,212)"/>
<path d="M0 0 C2.64 0 5.28 0 8 0 C8 1.32 8 2.64 8 4 C8.99 4.33 9.98 4.66 11 5 C9.02 7.31 7.04 9.62 5 12 C4.67 10.68 4.34 9.36 4 8 C4.66 7.67 5.32 7.34 6 7 C5.01 6.67 4.02 6.34 3 6 C3.33 4.68 3.66 3.36 4 2 C3.34 2 2.68 2 2 2 C2 2.66 2 3.32 2 4 C1.34 4 0.68 4 0 4 C0 2.68 0 1.36 0 0 Z " fill="#2F1D40" transform="translate(130,284)"/>
<path d="M0 0 C-0.99 0.495 -0.99 0.495 -2 1 C-2.33 1.99 -2.66 2.98 -3 4 C-4.65 4.33 -6.3 4.66 -8 5 C-8 5.66 -8 6.32 -8 7 C-10.64 7 -13.28 7 -16 7 C-11.99405619 2.32639889 -6.27505804 -2.17105803 0 0 Z " fill="#3F2640" transform="translate(64,273)"/>
<path d="M0 0 C4.73041839 2.50433915 8.48825251 4.84975296 12 9 C12 9.99 12 10.98 12 12 C9.69 12 7.38 12 5 12 C3.64560332 9.29120665 3.93498549 6.99066732 4 4 C3.34 4 2.68 4 2 4 C2 3.34 2 2.68 2 2 C1.34 2 0.68 2 0 2 C0 1.34 0 0.68 0 0 Z " fill="#351C3F" transform="translate(206,186)"/>
<path d="M0 0 C4.14749379 4.5424932 5.86999199 10.52984787 6.1875 16.5625 C6.125625 17.366875 6.06375 18.17125 6 19 C5.01 18.67 4.02 18.34 3 18 C2.67 14.7 2.34 11.4 2 8 C0.02 8 -1.96 8 -4 8 C-4 7.01 -4 6.02 -4 5 C-3.01 4.34 -2.02 3.68 -1 3 C-0.67 2.01 -0.34 1.02 0 0 Z " fill="#3C273F" transform="translate(376,291)"/>
<path d="M0 0 C0.928125 0.2784375 0.928125 0.2784375 1.875 0.5625 C4.04160178 1.23686176 4.04160178 1.23686176 6 0 C6 1.32 6 2.64 6 4 C6.66 4 7.32 4 8 4 C8.33 4.99 8.66 5.98 9 7 C9.99 7.33 10.98 7.66 12 8 C12 9.98 12 11.96 12 14 C6.67267854 10.0679294 3.4524818 5.61946506 0 0 Z " fill="#39233F" transform="translate(198,124)"/>
<path d="M0 0 C0.33 0.66 0.66 1.32 1 2 C1.66 2 2.32 2 3 2 C2.00956295 6.83628305 1.04301154 11.47618873 -1 16 C-1.33 16 -1.66 16 -2 16 C-2.33 13.36 -2.66 10.72 -3 8 C-2.34 8 -1.68 8 -1 8 C-1 7.34 -1 6.68 -1 6 C-1.66 6 -2.32 6 -3 6 C-3 5.34 -3 4.68 -3 4 C-2.34 4 -1.68 4 -1 4 C-0.67 2.68 -0.34 1.36 0 0 Z " fill="#381F44" transform="translate(157,248)"/>
<path d="M0 0 C1.98 0 3.96 0 6 0 C6.33 1.32 6.66 2.64 7 4 C9.31 4 11.62 4 14 4 C14 4.33 14 4.66 14 5 C9.32798795 6.20568053 4.78503708 6.09382426 0 6 C0 4.02 0 2.04 0 0 Z " fill="#341F44" transform="translate(320,226)"/>
<path d="M0 0 C0.99 0 1.98 0 3 0 C3 0.66 3 1.32 3 2 C3.99 2 4.98 2 6 2 C6 1.34 6 0.68 6 0 C6.99 0.33 7.98 0.66 9 1 C4.545 4.465 4.545 4.465 0 8 C-0.33 6.68 -0.66 5.36 -1 4 C-1.99 3.67 -2.98 3.34 -4 3 C-2.68 2.67 -1.36 2.34 0 2 C0 1.34 0 0.68 0 0 Z " fill="#36203A" transform="translate(125,296)"/>
<path d="M0 0 C0.99 0.33 1.98 0.66 3 1 C2.59007812 1.54269531 2.18015625 2.08539063 1.7578125 2.64453125 C0.94957031 3.71767578 0.94957031 3.71767578 0.125 4.8125 C-0.40867188 5.52019531 -0.94234375 6.22789063 -1.4921875 6.95703125 C-2.70814781 8.60456297 -3.86416141 10.29624211 -5 12 C-5 10.68 -5 9.36 -5 8 C-5.66 8 -6.32 8 -7 8 C-7 6.68 -7 5.36 -7 4 C-6.34 4 -5.68 4 -5 4 C-5 3.34 -5 2.68 -5 2 C-4.34 2 -3.68 2 -3 2 C-3 2.66 -3 3.32 -3 4 C-2.34 4 -1.68 4 -1 4 C-0.67 2.68 -0.34 1.36 0 0 Z " fill="#F4C71C" transform="translate(137,46)"/>
<path d="M0 0 C2.64 0 5.28 0 8 0 C8 0.66 8 1.32 8 2 C7.01 2 6.02 2 5 2 C3.79371992 4.33214148 2.8345262 6.49642139 2 9 C1.34 9 0.68 9 0 9 C0 6.03 0 3.06 0 0 Z " fill="#FFFFFF" transform="translate(0,0)"/>
<path d="M0 0 C0.66 0 1.32 0 2 0 C3.02611949 1.65071396 4.02308143 3.31970006 5 5 C6.58245275 6.75149165 6.58245275 6.75149165 8 8 C5.36 8 2.72 8 0 8 C0 5.36 0 2.72 0 0 Z " fill="#FEFEF9" transform="translate(0,338)"/>
<path d="M0 0 C6.45512034 -0.56131481 11.15439723 1.36536213 17 4 C15.68 4.33 14.36 4.66 13 5 C12.67 4.34 12.34 3.68 12 3 C11.34 3 10.68 3 10 3 C10 3.66 10 4.32 10 5 C9.34 5 8.68 5 8 5 C7.67 4.34 7.34 3.68 7 3 C5.824375 3.0928125 5.824375 3.0928125 4.625 3.1875 C3.75875 3.125625 2.8925 3.06375 2 3 C1.34 2.01 0.68 1.02 0 0 Z " fill="#35203C" transform="translate(348,275)"/>
<path d="M0 0 C2.31 0 4.62 0 7 0 C7 3.3 7 6.6 7 10 C6.34 9.01 5.68 8.02 5 7 C4.13375 6.154375 3.2675 5.30875 2.375 4.4375 C0 2 0 2 0 0 Z " fill="#FFFFFF" transform="translate(410,0)"/>
<path d="M0 0 C0 1.65 0 3.3 0 5 C-2.31 4.67 -4.62 4.34 -7 4 C-7 3.34 -7 2.68 -7 2 C-8.98 2 -10.96 2 -13 2 C-13 1.67 -13 1.34 -13 1 C-8.62426048 0.40667939 -4.42471556 -0.13827236 0 0 Z " fill="#321D3A" transform="translate(321,194)"/>
<path d="M0 0 C0.33 0 0.66 0 1 0 C1 3.3 1 6.6 1 10 C-1.31 10 -3.62 10 -6 10 C-5.195625 9.0925 -4.39125 8.185 -3.5625 7.25 C-1.58857329 4.89690092 -0.36122533 3.13061954 0 0 Z " fill="#FEFEFB" transform="translate(416,336)"/>
<path d="M0 0 C2.97 0 5.94 0 9 0 C9 1.32 9 2.64 9 4 C7.02 4.99 7.02 4.99 5 6 C3.35 4.02 1.7 2.04 0 0 Z " fill="#321F40" transform="translate(204,289)"/>
<path d="M0 0 C1.32 0.99 2.64 1.98 4 3 C4.25 5.6875 4.25 5.6875 4 8 C2.68 7.67 1.36 7.34 0 7 C0 8.98 0 10.96 0 13 C-0.99 13.495 -0.99 13.495 -2 14 C-1.34 9.38 -0.68 4.76 0 0 Z " fill="#E9BD24" transform="translate(162,237)"/>
<path d="M0 0 C1.65 0 3.3 0 5 0 C2.33333333 4 -0.33333333 8 -3 12 C-2.14285714 3.42857143 -2.14285714 3.42857143 0 0 Z " fill="#ECC02A" transform="translate(269,204)"/>
<path d="M0 0 C2.75026417 -0.05404449 5.49946203 -0.09369306 8.25 -0.125 C9.02730469 -0.14175781 9.80460937 -0.15851563 10.60546875 -0.17578125 C17.72431144 -0.23662606 17.72431144 -0.23662606 21 2 C20 3 20 3 16.9375 3.0625 C15.968125 3.041875 14.99875 3.02125 14 3 C14 2.34 14 1.68 14 1 C9.38 1 4.76 1 0 1 C0 0.67 0 0.34 0 0 Z " fill="#38232F" transform="translate(84,267)"/>
<path d="M0 0 C0.33 0 0.66 0 1 0 C1.33 4.29 1.66 8.58 2 13 C1.34 13 0.68 13 0 13 C-0.33 14.32 -0.66 15.64 -1 17 C-2.3357457 13.22628488 -1.72408671 10.14168653 -1.0625 6.25 C-0.86785156 5.07953125 -0.67320313 3.9090625 -0.47265625 2.703125 C-0.31667969 1.81109375 -0.16070312 0.9190625 0 0 Z " fill="#4D3545" transform="translate(124,227)"/>
<path d="M0 0 C0 1.65 0 3.3 0 5 C-0.99 5.495 -0.99 5.495 -2 6 C-2.66 5.67 -3.32 5.34 -4 5 C-4 5.66 -4 6.32 -4 7 C-4.66 7 -5.32 7 -6 7 C-6.33 6.01 -6.66 5.02 -7 4 C-3.375 0 -3.375 0 0 0 Z " fill="#321D3D" transform="translate(280,201)"/>
<path d="M0 0 C3.96 0 7.92 0 12 0 C12.33 0.66 12.66 1.32 13 2 C10.03 2.66 7.06 3.32 4 4 C4 3.34 4 2.68 4 2 C2.68 2 1.36 2 0 2 C0 1.34 0 0.68 0 0 Z " fill="#F8CF13" transform="translate(400,2)"/>
<path d="M0 0 C0.66 0 1.32 0 2 0 C2 0.66 2 1.32 2 2 C4.31 2 6.62 2 9 2 C4.375 6.875 4.375 6.875 1 8 C1 7.34 1 6.68 1 6 C1.66 6 2.32 6 3 6 C3 5.34 3 4.68 3 4 C2.01 3.67 1.02 3.34 0 3 C0 2.01 0 1.02 0 0 Z " fill="#331F40" transform="translate(352,214)"/>
<path d="M0 0 C1.65 0 3.3 0 5 0 C4.814375 0.763125 4.62875 1.52625 4.4375 2.3125 C3.77180827 5.08967375 3.77180827 5.08967375 5 8 C2 7 2 7 0.8125 5.125 C0 3 0 3 0 0 Z " fill="#341F3C" transform="translate(192,268)"/>
<path d="M0 0 C0.33 0 0.66 0 1 0 C1 1.98 1 3.96 1 6 C1.66 6 2.32 6 3 6 C3 6.66 3 7.32 3 8 C3.66 8 4.32 8 5 8 C5 8.66 5 9.32 5 10 C2.69 10 0.38 10 -2 10 C-1.34 6.7 -0.68 3.4 0 0 Z " fill="#412C3C" transform="translate(343,170)"/>
<path d="M0 0 C3.55780196 0.60990891 6.6828589 1.5783681 10 3 C9.67 3.66 9.34 4.32 9 5 C6.69 5 4.38 5 2 5 C0 1.125 0 1.125 0 0 Z " fill="#36213B" transform="translate(240,113)"/>
<path d="M0 0 C0.66 0 1.32 0 2 0 C2 2.64 2 5.28 2 8 C1.34 8 0.68 8 0 8 C0 7.34 0 6.68 0 6 C-0.66 6 -1.32 6 -2 6 C-2.33 7.32 -2.66 8.64 -3 10 C-3.33 9.34 -3.66 8.68 -4 8 C-3.22265625 6.0546875 -3.22265625 6.0546875 -2.0625 3.875 C-1.49208984 2.78832031 -1.49208984 2.78832031 -0.91015625 1.6796875 C-0.60980469 1.12539062 -0.30945313 0.57109375 0 0 Z " fill="#3C2245" transform="translate(124,240)"/>
<path d="M0 0 C1.1875 1.5625 1.1875 1.5625 2 4 C-0.24489796 10.62244898 -0.24489796 10.62244898 -3 12 C-2.40075776 7.80530429 -1.42500059 3.99000166 0 0 Z " fill="#3C213F" transform="translate(131,60)"/>
<path d="M0 0 C0 0.66 0 1.32 0 2 C-1.32 2 -2.64 2 -4 2 C-4 2.66 -4 3.32 -4 4 C-4.66 4 -5.32 4 -6 4 C-6.33 4.99 -6.66 5.98 -7 7 C-8.98 7.33 -10.96 7.66 -13 8 C-5.43243243 0 -5.43243243 0 0 0 Z " fill="#462B36" transform="translate(154,38)"/>
<path d="M0 0 C3.63 1.65 7.26 3.3 11 5 C11 5.33 11 5.66 11 6 C5.67988107 6.34886026 5.67988107 6.34886026 3 6 C1 4.125 1 4.125 0 2 C0 1.34 0 0.68 0 0 Z " fill="#F3C427" transform="translate(218,302)"/>
<path d="M0 0 C0.33 1.32 0.66 2.64 1 4 C1.66 4 2.32 4 3 4 C3 5.32 3 6.64 3 8 C1.68 8 0.36 8 -1 8 C-1 8.66 -1 9.32 -1 10 C-1.66 10 -2.32 10 -3 10 C-2.01 6.7 -1.02 3.4 0 0 Z " fill="#EABE20" transform="translate(379,186)"/>
<path d="M0 0 C0 0.99 0 1.98 0 3 C-0.99 3.33 -1.98 3.66 -3 4 C-3.33 5.98 -3.66 7.96 -4 10 C-4.99 10.33 -5.98 10.66 -7 11 C-7.66 10.34 -8.32 9.68 -9 9 C-6.21000549 5.51250686 -3.74764169 2.49842779 0 0 Z " fill="#422436" transform="translate(361,44)"/>
<path d="M0 0 C0.99 0.33 1.98 0.66 3 1 C2.34 1 1.68 1 1 1 C0.7525 1.61875 0.505 2.2375 0.25 2.875 C-1.20628639 5.35068687 -2.37812506 5.95125002 -5 7 C-5.33 5.35 -5.66 3.7 -6 2 C-4.02 2 -2.04 2 0 2 C0 1.34 0 0.68 0 0 Z " fill="#EBC021" transform="translate(356,46)"/>
<path d="M0 0 C0.66 0 1.32 0 2 0 C3.32 2.31 4.64 4.62 6 7 C3 8 3 8 0 8 C0 7.34 0 6.68 0 6 C0.66 6 1.32 6 2 6 C1.34 4.02 0.68 2.04 0 0 Z " fill="#382145" transform="translate(370,284)"/>
<path d="M0 0 C0.99 0 1.98 0 3 0 C3 0.66 3 1.32 3 2 C3.99 2.33 4.98 2.66 6 3 C2.17679443 4.42258812 -0.91281305 5.24042276 -5 5 C-3.625 3.5 -3.625 3.5 -2 2 C-1.34 2 -0.68 2 0 2 C0 1.34 0 0.68 0 0 Z " fill="#F1C52C" transform="translate(325,188)"/>
<path d="M0 0 C0.33 0.99 0.66 1.98 1 3 C-0.65 3.33 -2.3 3.66 -4 4 C-4 4.66 -4 5.32 -4 6 C-5.65 6 -7.3 6 -9 6 C-6.45543849 3.03134491 -3.51005335 1.6380249 0 0 Z " fill="#E4BD27" transform="translate(127,302)"/>
<path d="M0 0 C1.32 0.66 2.64 1.32 4 2 C3.34 2 2.68 2 2 2 C2 2.66 2 3.32 2 4 C-1.80504787 5.79682816 -2.70600835 6.07349791 -7 5 C-4.69 3.35 -2.38 1.7 0 0 Z " fill="#3B1C3B" transform="translate(115,260)"/>
<path d="M0 0 C4.37934119 0.51958285 8.68803391 1.05675742 13 2 C13 2.33 13 2.66 13 3 C10.36 3.66 7.72 4.32 5 5 C5 4.34 5 3.68 5 3 C2.525 2.01 2.525 2.01 0 1 C0 0.67 0 0.34 0 0 Z " fill="#EAC036" transform="translate(233,151)"/>
<path d="M0 0 C2.97 0 5.94 0 9 0 C9 0.66 9 1.32 9 2 C8.34 2 7.68 2 7 2 C7.33 2.99 7.66 3.98 8 5 C4.35446828 3.7191375 2.83328987 2.83328987 0 0 Z " fill="#42283A" transform="translate(213,140)"/>
<path d="M0 0 C2.5 2.3125 2.5 2.3125 5 5 C5 5.99 5 6.98 5 8 C4.67 7.34 4.34 6.68 4 6 C2.68 6.33 1.36 6.66 0 7 C-1.125 2.25 -1.125 2.25 0 0 Z " fill="#E7BB1F" transform="translate(198,282)"/>
<path d="M0 0 C-0.99 0.495 -0.99 0.495 -2 1 C-2.33 1.99 -2.66 2.98 -3 4 C-4.65 4.33 -6.3 4.66 -8 5 C-8 4.34 -8 3.68 -8 3 C-7.34 3 -6.68 3 -6 3 C-6 2.01 -6 1.02 -6 0 C-3.50907189 -1.24546405 -2.58919267 -0.7767578 0 0 Z " fill="#31213E" transform="translate(64,273)"/>
<path d="M0 0 C2.125 0.375 2.125 0.375 4 1 C0.57653445 4.14958831 -2.44262737 4.56179109 -7 5 C-6.67 3.68 -6.34 2.36 -6 1 C-5.38125 1.20625 -4.7625 1.4125 -4.125 1.625 C-3.073125 1.810625 -3.073125 1.810625 -2 2 C-1.34 1.34 -0.68 0.68 0 0 Z " fill="#F4C618" transform="translate(275,200)"/>
<path d="M0 0 C1.66832577 2.50248865 2.62381674 4.41149187 3.625 7.1875 C4.01558594 8.26064453 4.01558594 8.26064453 4.4140625 9.35546875 C4.60742188 9.89816406 4.80078125 10.44085938 5 11 C4.01 10.67 3.02 10.34 2 10 C2 9.34 2 8.68 2 8 C1.34 8 0.68 8 0 8 C0 5.36 0 2.72 0 0 Z " fill="#4D2D3A" transform="translate(226,252)"/>
<path d="M0 0 C0.66 0 1.32 0 2 0 C1.979375 0.928125 1.95875 1.85625 1.9375 2.8125 C1.84230396 6.02286011 1.84230396 6.02286011 3 9 C1.0625 8.1875 1.0625 8.1875 -1 7 C-1.33 6.01 -1.66 5.02 -2 4 C-1.34 4 -0.68 4 0 4 C0 2.68 0 1.36 0 0 Z " fill="#F5C91C" transform="translate(232,256)"/>
<path d="M0 0 C-1.98 0.66 -3.96 1.32 -6 2 C-6 2.66 -6 3.32 -6 4 C-7.65 4 -9.3 4 -11 4 C-7.39987093 0.15158617 -5.25169925 -1.6298377 0 0 Z " fill="#452C35" transform="translate(374,40)"/>
<path d="M0 0 C1.65 0.33 3.3 0.66 5 1 C2.11912454 3.40072955 -0.56404834 5.47291037 -4 7 C-4 6.34 -4 5.68 -4 5 C-3.34 5 -2.68 5 -2 5 C-1.34 3.35 -0.68 1.7 0 0 Z " fill="#EFC427" transform="translate(146,37)"/>
<path d="M0 0 C0.99 0 1.98 0 3 0 C3 0.66 3 1.32 3 2 C2.34 2 1.68 2 1 2 C0.67 3.32 0.34 4.64 0 6 C-0.99 6 -1.98 6 -3 6 C-3 4.68 -3 3.36 -3 2 C-2.01 2 -1.02 2 0 2 C0 1.34 0 0.68 0 0 Z " fill="#2E1557" transform="translate(141,282)"/>
<path d="M0 0 C0.66 0.33 1.32 0.66 2 1 C1.34 2.32 0.68 3.64 0 5 C-2.31 4.67 -4.62 4.34 -7 4 C-4.66603411 2.44402274 -2.57343171 1.07918104 0 0 Z " fill="#452B3B" transform="translate(332,189)"/>
<path d="M0 0 C2.31 0 4.62 0 7 0 C7.33 1.98 7.66 3.96 8 6 C6.66402348 5.19185349 5.331275 4.37836819 4 3.5625 C3.2575 3.11003906 2.515 2.65757812 1.75 2.19140625 C1.1725 1.79824219 0.595 1.40507812 0 1 C0 0.67 0 0.34 0 0 Z " fill="#E6BF2E" transform="translate(207,186)"/>
<path d="M0 0 C1.54571278 2.31856917 2.79618552 4.50638429 4 7 C2.02 7 0.04 7 -2 7 C-1.34 4.69 -0.68 2.38 0 0 Z " fill="#EEC21E" transform="translate(194,117)"/>
<path d="M0 0 C0.66 0.33 1.32 0.66 2 1 C1.01 2.98 0.02 4.96 -1 7 C-2.65 6.67 -4.3 6.34 -6 6 C-6 5.34 -6 4.68 -6 4 C-4.7934375 3.566875 -4.7934375 3.566875 -3.5625 3.125 C-0.8673532 2.26737432 -0.8673532 2.26737432 0 0 Z " fill="#38213A" transform="translate(152,268)"/>
<path d="M0 0 C0.33 0.66 0.66 1.32 1 2 C1.66 2 2.32 2 3 2 C3.33 2.99 3.66 3.98 4 5 C3.01 5.33 2.02 5.66 1 6 C1 5.34 1 4.68 1 4 C0.34 4 -0.32 4 -1 4 C-1.33 4.99 -1.66 5.98 -2 7 C-1.125 2.25 -1.125 2.25 0 0 Z " fill="#3B233A" transform="translate(135,52)"/>
<path d="M0 0 C0 0.66 0 1.32 0 2 C1.32 2.33 2.64 2.66 4 3 C2.02 3.99 2.02 3.99 0 5 C-1.32 3.68 -2.64 2.36 -4 1 C-2 0 -2 0 0 0 Z " fill="#3A2246" transform="translate(216,296)"/>
<path d="M0 0 C0.66 0 1.32 0 2 0 C2 0.66 2 1.32 2 2 C1.34 2 0.68 2 0 2 C0 2.66 0 3.32 0 4 C0.66 4.33 1.32 4.66 2 5 C-0.64 5 -3.28 5 -6 5 C-5.195625 4.360625 -4.39125 3.72125 -3.5625 3.0625 C-1.7249496 1.59396498 -1.7249496 1.59396498 0 0 Z " fill="#F1C531" transform="translate(254,268)"/>
<path d="M0 0 C0.66 0.33 1.32 0.66 2 1 C0.515 3.475 0.515 3.475 -1 6 C-2.65 5.67 -4.3 5.34 -6 5 C-4.00856305 2.01284458 -3.23356015 1.21258505 0 0 Z " fill="#EDC11F" transform="translate(247,266)"/>
<path d="M0 0 C2.125 0.375 2.125 0.375 4 1 C4 1.66 4 2.32 4 3 C3.34 3 2.68 3 2 3 C2 3.66 2 4.32 2 5 C1.34 5 0.68 5 0 5 C0 4.34 0 3.68 0 3 C-0.66 2.67 -1.32 2.34 -2 2 C-1.34 1.34 -0.68 0.68 0 0 Z " fill="#EDC125" transform="translate(130,299)"/>
<path d="M0 0 C0.99 0.99 1.98 1.98 3 3 C2.01 4.485 2.01 4.485 1 6 C1 5.34 1 4.68 1 4 C0.34 4 -0.32 4 -1 4 C-1 4.66 -1 5.32 -1 6 C-1.66 6 -2.32 6 -3 6 C-2 4 -1 2 0 0 Z " fill="#3A1F44" transform="translate(219,198)"/>
<path d="M0 0 C1.125 3.75 1.125 3.75 0 6 C-1.32 5.67 -2.64 5.34 -4 5 C-2.68 3.35 -1.36 1.7 0 0 Z " fill="#402837" transform="translate(140,46)"/>
</svg>
