<?xml version="1.0" encoding="UTF-8"?>
<svg version="1.1" xmlns="http://www.w3.org/2000/svg" width="1596" height="346">
<path d="M0 0 C16.17 0 32.34 0 49 0 C52.70126689 9.98835036 56.37282345 19.98485478 60 30 C60.3040979 30.83825317 60.6081958 31.67650635 60.92150879 32.54016113 C69.47177716 56.13394194 77.27159063 79.55352493 83 104 C83.65619311 106.66945585 84.3263285 109.33488982 85 112 C85.22026855 111.09685059 85.44053711 110.19370117 85.66748047 109.26318359 C90.66260928 88.93596277 96.27485263 69.06282366 103.19885254 49.29553223 C104.43323491 45.75864962 105.65331826 42.21685232 106.87509155 38.67559814 C108.57862664 33.74041132 110.28864583 28.80748007 112 23.875 C112.33332336 22.91360107 112.66664673 21.95220215 113.0100708 20.96166992 C113.96189929 18.22073299 114.91774485 15.48123326 115.875 12.7421875 C116.16104095 11.91753998 116.44708191 11.09289246 116.74179077 10.24325562 C117.01004669 9.47832794 117.27830261 8.71340027 117.5546875 7.92529297 C117.78655762 7.26077118 118.01842773 6.59624939 118.25732422 5.91159058 C119.04399569 3.88675847 120.02852719 1.94294561 121 0 C137.17 0 153.34 0 170 0 C170 50.82 170 101.64 170 154 C159.44 154 148.88 154 138 154 C138 114.73 138 75.46 138 35 C134.04 48.86 130.08 62.72 126 77 C122.5045837 87.46509307 118.98864599 97.88975766 115.269104 108.27227783 C114.06109422 111.65339048 112.86833895 115.0398815 111.67382812 118.42578125 C109.13177587 125.62288006 106.56942838 132.81262754 104 140 C103.31280737 141.92393924 102.62576165 143.84793089 101.93874931 145.77193451 C100.95931659 148.51467671 99.97963406 151.2573297 99 154 C89.76 154 80.52 154 71 154 C68.15381606 145.99234992 65.30997396 137.98387861 62.4698267 129.97408581 C61.1497714 126.25153033 59.82884124 122.52929105 58.50561523 118.80786133 C53.30895389 104.19053419 48.12916716 89.56790116 43.18359375 74.86328125 C42.85948013 73.90850388 42.53536652 72.9537265 42.20143127 71.97001648 C38.4596639 60.73532721 35.32218505 49.39034875 32 38 C32 76.28 32 114.56 32 154 C21.44 154 10.88 154 0 154 C0 103.18 0 52.36 0 0 Z " fill="#2B194B" transform="translate(261,0)"/>
<path d="M0 0 C1.5950461 -0.0415663 3.18970968 -0.1028485 4.78320312 -0.18457031 C17.88101187 -0.84531893 17.88101187 -0.84531893 22.15991211 2.46240234 C24.02741264 5.0859781 25.39161 7.7217773 26.78271484 10.62475586 C28.01863689 12.63462425 29.27335217 14.63303013 30.54443359 16.62084961 C31.85579674 18.76629474 33.16429529 20.91349291 34.47021484 23.06225586 C35.88764691 25.38239324 37.30770162 27.70092029 38.72802734 30.01928711 C39.07730789 30.58991882 39.42658844 31.16055054 39.78645325 31.74847412 C42.76462562 36.6087953 45.79162128 41.43657094 48.84521484 46.24975586 C49.80095937 47.75886071 50.75668829 49.26797546 51.71240234 50.77709961 C52.44475098 51.93314697 52.44475098 51.93314697 53.19189453 53.11254883 C73.94816062 85.89063017 73.94816062 85.89063017 82.41552734 102.8762207 C82.90194702 103.85059334 82.90194702 103.85059334 83.39819336 104.84465027 C84.19344723 106.43781252 84.98813752 108.03125608 85.78271484 109.62475586 C85.78179305 109.06907456 85.78087126 108.51339327 85.77992153 107.94087315 C85.75786503 94.43799036 85.74136643 80.93511071 85.73090267 67.43221378 C85.72567314 60.90239353 85.71857423 54.37258623 85.70727539 47.84277344 C85.69644899 41.54694427 85.69043854 35.2511276 85.6878376 28.95528984 C85.6859829 26.54740642 85.68236145 24.13952372 85.67698479 21.73164558 C85.66977765 18.371863 85.66872376 15.01213276 85.66918945 11.65234375 C85.66559418 10.64605927 85.6619989 9.63977478 85.65829468 8.60299683 C85.65966934 7.69289352 85.66104401 6.78279022 85.66246033 5.84510803 C85.66153853 5.04960069 85.66061674 4.25409334 85.65966702 3.43447971 C85.78271484 1.62475586 85.78271484 1.62475586 86.78271484 0.62475586 C89.06219276 0.52454656 91.34478619 0.49394283 93.62646484 0.49194336 C94.31075562 0.49098663 94.99504639 0.49002991 95.70007324 0.48904419 C97.14933362 0.48836256 98.59859703 0.49021563 100.04785156 0.49438477 C102.27334412 0.49973334 104.49863485 0.49443926 106.72412109 0.48803711 C108.12906946 0.48869789 109.5340177 0.48997906 110.93896484 0.49194336 C112.22609375 0.49307129 113.51322266 0.49419922 114.83935547 0.49536133 C117.78271484 0.62475586 117.78271484 0.62475586 118.78271484 1.62475586 C118.87942284 3.61170437 118.90458536 5.60214599 118.90296936 7.59144592 C118.90503136 9.53717751 118.90503136 9.53717751 118.90713501 11.5222168 C118.90359539 12.97314476 118.89996057 14.42407249 118.89624023 15.875 C118.89595837 17.39236957 118.89611608 18.90973928 118.89668274 20.42710876 C118.89697075 24.55916101 118.89107342 28.69118449 118.88410878 32.82323003 C118.87787587 37.13674478 118.87727149 41.45026013 118.87608337 45.76377869 C118.87296987 53.93775703 118.86475624 62.11172207 118.85473388 70.28569454 C118.84357333 79.58904555 118.83806244 88.89239718 118.83303845 98.19575322 C118.82257364 117.33876165 118.80497383 136.48175769 118.78271484 155.62475586 C113.80829864 155.86111904 108.83720222 156.03264862 103.85847473 156.14660645 C102.1686252 156.19413709 100.47916139 156.25879025 98.79066467 156.34143066 C84.78177064 157.00946879 84.78177064 157.00946879 79.83344078 153.58184242 C76.23131758 149.5173386 73.53298617 145.09839586 71.57177734 140.02319336 C68.80531296 133.45209033 65.22637759 127.7120079 61.34521484 121.74975586 C60.08306795 119.73423447 58.82526602 117.71598582 57.57177734 115.69506836 C55.05769166 111.6613806 52.53119267 107.63591516 49.99365234 103.61694336 C38.09058457 84.73865328 26.43049776 65.77076936 16.78271484 45.62475586 C16.85417725 46.76372314 16.92563965 47.90269043 16.99926758 49.07617188 C18.14129011 69.54608976 17.89760326 90.04052327 17.85137939 110.53393555 C17.84100576 115.62995993 17.83655219 120.7259895 17.83154297 125.82202148 C17.82093432 135.75628183 17.80339992 145.69051138 17.78271484 155.62475586 C6.89271484 155.62475586 -3.99728516 155.62475586 -15.21728516 155.62475586 C-15.23983083 135.56291968 -15.25826354 115.5010937 -15.26909733 95.43924809 C-15.27426063 86.1248587 -15.28130397 76.81047773 -15.29272461 67.49609375 C-15.30267042 59.38070226 -15.30913834 51.26531686 -15.31137365 43.14991945 C-15.31268093 38.85015798 -15.31576789 34.55041394 -15.32301521 30.25065804 C-15.3297738 26.20832744 -15.33190245 22.16602154 -15.33039284 18.12368584 C-15.33066924 16.63571412 -15.33267532 15.14774163 -15.33649063 13.65977478 C-15.34142529 11.63700448 -15.33968332 9.6142211 -15.33753967 7.59144592 C-15.33846147 6.45671876 -15.33938326 5.3219916 -15.34033298 4.15287876 C-15.04729118 -1.86791584 -4.78669533 0.09749768 0 0 Z " fill="#2B194B" transform="translate(728.21728515625,190.375244140625)"/>
<path d="M0 0 C1.84441429 -0.00956978 1.84441429 -0.00956978 3.72608948 -0.01933289 C5.08423829 -0.02086381 6.44238763 -0.02197656 7.80053711 -0.02270508 C9.19567397 -0.02592056 10.5908105 -0.02928485 11.98594666 -0.03279114 C14.92586036 -0.038798 17.86574465 -0.04063005 20.80566406 -0.04003906 C24.52699001 -0.03993873 28.24811954 -0.0534481 31.96939945 -0.07081127 C34.86181961 -0.08209045 37.75419519 -0.08395328 40.64663506 -0.08342934 C42.67126261 -0.08514838 44.69587622 -0.09590972 46.72047424 -0.10697937 C65.00783721 -0.06291656 83.18450908 1.45863945 96.94116211 14.76635742 C104.76519678 23.17282643 106.85977469 32.98199159 106.60131836 44.18041992 C105.83928639 53.17416934 102.17606981 60.39465989 95.51928711 66.45776367 C90.62915189 70.11900876 85.24727014 72.84187037 79.26538086 74.14526367 C80.29985352 74.3830957 80.29985352 74.3830957 81.35522461 74.62573242 C92.59589999 77.41662713 100.40375875 81.58246 107.26538086 91.14526367 C112.76934117 100.94422191 113.71664702 111.66502325 111.58178711 122.66870117 C108.4003501 133.99514496 102.04886967 142.6575959 91.76538086 148.58666992 C78.89076903 154.85555795 66.15742105 155.57508971 52.15209961 155.43823242 C50.44432451 155.43262289 48.73654451 155.42835923 47.02876282 155.42536926 C42.57852363 155.41402712 38.12858781 155.38465429 33.6784668 155.35125732 C29.11958925 155.32032442 24.56066169 155.30681479 20.00170898 155.29174805 C11.08946782 155.2597721 2.17744977 155.20870791 -6.73461914 155.14526367 C-6.75794653 135.08343041 -6.77559753 115.02159989 -6.78643131 94.9597559 C-6.79159461 85.64536652 -6.79863795 76.33098555 -6.81005859 67.01660156 C-6.8200044 58.90121007 -6.82647232 50.78582468 -6.82870764 42.67042726 C-6.83001492 38.37066579 -6.83310188 34.07092175 -6.8403492 29.77116585 C-6.84710779 25.72883525 -6.84923643 21.68652936 -6.84772682 17.64419365 C-6.84800322 16.15622193 -6.8500093 14.66824944 -6.85382462 13.18028259 C-6.85875928 11.1575123 -6.8570173 9.13472892 -6.85487366 7.11195374 C-6.85579545 5.97722657 -6.85671724 4.84249941 -6.85766697 3.67338657 C-6.62879664 -1.02895016 -4.13935952 0.01452259 0 0 Z M25.26538086 27.14526367 C25.26538086 39.68526367 25.26538086 52.22526367 25.26538086 65.14526367 C32.87600586 65.26901367 32.87600586 65.26901367 40.64038086 65.39526367 C42.21996582 65.43167969 43.79955078 65.4680957 45.42700195 65.50561523 C53.19889502 65.56654043 60.50555493 65.50011086 67.26538086 61.14526367 C71.86241781 56.41170379 74.01877263 52.41282265 74.51538086 45.83276367 C74.14173161 40.32143721 72.49989999 36.61334047 68.95288086 32.39526367 C63.5413564 27.86468505 58.97474055 26.70513749 52.02319336 26.85229492 C51.00020142 26.85682678 51.00020142 26.85682678 49.95654297 26.8614502 C47.43433268 26.87702286 44.91233989 26.91890611 42.39038086 26.95776367 C33.91350586 27.05057617 33.91350586 27.05057617 25.26538086 27.14526367 Z M25.26538086 88.14526367 C25.26538086 101.67526367 25.26538086 115.20526367 25.26538086 129.14526367 C33.61850586 129.23807617 33.61850586 129.23807617 42.14038086 129.33276367 C44.74468994 129.37373169 44.74468994 129.37373169 47.40161133 129.41552734 C61.30850197 129.58377286 61.30850197 129.58377286 73.70288086 123.83276367 C77.96030985 119.36765522 79.44070693 115.89329341 79.70288086 109.77026367 C79.48219099 102.70818781 77.41696736 98.29685017 72.45288086 93.33276367 C66.01236022 88.91279853 61.14048417 87.69838148 53.48803711 87.85229492 C52.40758118 87.85682678 52.40758118 87.85682678 51.30529785 87.8614502 C48.64601053 87.87700158 45.98692943 87.91888433 43.32788086 87.95776367 C37.36725586 88.01963867 31.40663086 88.08151367 25.26538086 88.14526367 Z " fill="#2B194B" transform="translate(1205.734619140625,190.854736328125)"/>
<path d="M0 0 C1.65938599 -0.00956978 1.65938599 -0.00956978 3.35229492 -0.01933289 C5.1675769 -0.02100212 5.1675769 -0.02100212 7.01953125 -0.02270508 C8.88798706 -0.02769768 8.88798706 -0.02769768 10.79418945 -0.03279114 C13.44746433 -0.03787146 16.10063703 -0.04063004 18.75390625 -0.04003906 C22.75919309 -0.03991937 26.76428978 -0.06026132 30.76953125 -0.0793457 C57.18801308 -0.13938137 83.23333228 0.54413421 103.67578125 19.80151367 C121.79282124 39.49394844 125.03954722 63.09525298 124.04785156 88.88647461 C123.57998835 95.95099746 122.0757528 102.45088134 119.83203125 109.14526367 C119.46980469 110.23581055 119.10757813 111.32635742 118.734375 112.44995117 C112.57842032 128.85191855 100.39753548 140.77621002 84.98828125 148.58666992 C71.96493711 154.45067568 58.80278664 155.59870352 44.7109375 155.43823242 C43.23022396 155.43261673 41.74950474 155.42835601 40.26878357 155.42536926 C36.42682701 155.41407529 32.58522679 155.38474752 28.7434082 155.35125732 C24.80099301 155.3202171 20.85851856 155.30679245 16.91601562 155.29174805 C9.22119411 155.25985778 1.52666315 155.20885647 -6.16796875 155.14526367 C-6.19129614 135.08343041 -6.20894714 115.02159989 -6.21978092 94.9597559 C-6.22494422 85.64536652 -6.23198756 76.33098555 -6.2434082 67.01660156 C-6.25335401 58.90121007 -6.25982193 50.78582468 -6.26205724 42.67042726 C-6.26336453 38.37066579 -6.26645149 34.07092175 -6.27369881 29.77116585 C-6.2804574 25.72883525 -6.28258604 21.68652936 -6.28107643 17.64419365 C-6.28135283 16.15622193 -6.28335891 14.66824944 -6.28717422 13.18028259 C-6.29210889 11.1575123 -6.29036691 9.13472892 -6.28822327 7.11195374 C-6.28914506 5.97722657 -6.29006685 4.84249941 -6.29101658 3.67338657 C-6.07158536 -0.83501561 -4.00653221 0.01563374 0 0 Z M25.83203125 28.14526367 C25.83203125 61.14526367 25.83203125 94.14526367 25.83203125 128.14526367 C55.44105366 129.44667914 55.44105366 129.44667914 80.72265625 116.68041992 C90.11733151 105.38941206 92.18576565 92.54213755 92.14453125 78.33276367 C92.16064453 77.23383789 92.17675781 76.13491211 92.19335938 75.00268555 C92.20112613 61.82250446 89.30643492 48.78814397 80.20703125 38.83276367 C65.44152433 25.06830807 44.60299307 28.14526367 25.83203125 28.14526367 Z " fill="#2B194B" transform="translate(438.16796875,190.854736328125)"/>
<path d="M0 0 C1.21281647 -0.00637985 2.42563293 -0.0127597 3.67520142 -0.01933289 C5.01442424 -0.02086367 6.35364759 -0.0219765 7.69287109 -0.02270508 C9.06798334 -0.02592032 10.44309525 -0.0292846 11.81820679 -0.03279114 C14.71523833 -0.03879739 17.61224001 -0.04063008 20.50927734 -0.04003906 C24.17913672 -0.03993865 27.84879726 -0.05345628 31.51861 -0.07081127 C34.36895579 -0.08208046 37.21925628 -0.08395359 40.06962204 -0.08342934 C42.06715081 -0.0851506 44.06466542 -0.09591721 46.06216431 -0.10697937 C63.63259013 -0.06397222 82.03356191 1.42840149 95.34130859 14.14526367 C96.05029297 14.81428711 96.75927734 15.48331055 97.48974609 16.17260742 C106.70962511 25.64954626 110.14564363 37.97838353 110.65380859 50.95776367 C110.3516494 62.83639696 107.09806835 75.59445472 98.99755859 84.62963867 C88.59904055 94.14526367 88.59904055 94.14526367 83.34130859 94.14526367 C90.89913214 109.70841348 99.17137962 124.89845286 107.34130859 140.14526367 C109.98130859 145.09526367 112.62130859 150.04526367 115.34130859 155.14526367 C103.46130859 155.14526367 91.58130859 155.14526367 79.34130859 155.14526367 C76.59818359 149.94776367 73.85505859 144.75026367 71.02880859 139.39526367 C69.07113119 135.76376618 69.07113119 135.76376618 67.11077881 132.13371277 C63.53508481 125.50108556 60.20592723 118.95516565 57.62548828 111.85498047 C55.86461232 108.00805863 55.86461232 108.00805863 50.34130859 101.14526367 C42.09130859 100.81526367 33.84130859 100.48526367 25.34130859 100.14526367 C25.34130859 118.29526367 25.34130859 136.44526367 25.34130859 155.14526367 C14.78130859 155.14526367 4.22130859 155.14526367 -6.65869141 155.14526367 C-6.68123708 135.08342749 -6.69966979 115.02160151 -6.71050358 94.9597559 C-6.71566688 85.64536652 -6.72271022 76.33098555 -6.73413086 67.01660156 C-6.74407667 58.90121007 -6.75054459 50.78582468 -6.7527799 42.67042726 C-6.75408718 38.37066579 -6.75717414 34.07092175 -6.76442146 29.77116585 C-6.77118005 25.72883525 -6.7733087 21.68652936 -6.77179909 17.64419365 C-6.77207549 16.15622193 -6.77408157 14.66824944 -6.77789688 13.18028259 C-6.78283154 11.1575123 -6.78108957 9.13472892 -6.77894592 7.11195374 C-6.77986772 5.97722657 -6.78078951 4.84249941 -6.78173923 3.67338657 C-6.55409496 -1.00375989 -4.12276607 0.01466342 0 0 Z M25.34130859 27.14526367 C25.34130859 42.65526367 25.34130859 58.16526367 25.34130859 74.14526367 C30.78630859 74.20713867 36.23130859 74.26901367 41.84130859 74.33276367 C43.54351562 74.36007568 45.24572266 74.3873877 46.99951172 74.41552734 C48.3738535 74.42430277 49.74820318 74.43194419 51.12255859 74.43823242 C52.16234863 74.46125427 52.16234863 74.46125427 53.22314453 74.48474121 C60.15160466 74.48838521 66.79724923 72.545102 72.02099609 67.77807617 C76.48496151 62.2575509 77.98932311 55.49720582 77.66162109 48.52807617 C76.76463875 41.85540263 74.18808667 36.88433557 69.34130859 32.14526367 C62.75304264 27.96244979 56.83661986 27.01565334 49.07177734 27.04760742 C47.82549561 27.05010498 46.57921387 27.05260254 45.29516602 27.05517578 C43.72226807 27.06427979 42.14937012 27.07338379 40.52880859 27.08276367 C35.51693359 27.10338867 30.50505859 27.12401367 25.34130859 27.14526367 Z " fill="#2B194B" transform="translate(299.65869140625,190.854736328125)"/>
<path d="M0 0 C1.68216214 0.00031737 3.36434441 0.01165683 5.04638672 0.03173828 C6.37390457 0.03598312 6.37390457 0.03598312 7.72824097 0.04031372 C10.56098834 0.05152838 13.39342206 0.07663508 16.22607422 0.10205078 C18.14403841 0.11207893 20.06200755 0.12120507 21.97998047 0.12939453 C26.68713298 0.15147189 31.39405038 0.18601033 36.10107422 0.22705078 C39.2032902 6.87886801 41.76095274 13.63908597 44.16357422 20.57080078 C44.54755875 21.66856842 44.93154327 22.76633606 45.3271637 23.89736938 C46.58859501 27.50606489 47.8447867 31.11656173 49.10107422 34.72705078 C49.98730725 37.2647908 50.87387347 39.80241146 51.76098633 42.33984375 C53.37582203 46.95987673 54.9894543 51.58032641 56.60146618 56.20134544 C60.84901653 68.37710232 65.11665195 80.54578924 69.38684082 92.71362305 C70.6537456 96.32404124 71.91993427 99.93470998 73.18603516 103.54541016 C76.70863627 113.58803523 80.23525853 123.62908523 83.80029297 133.65673828 C84.07019547 134.4159256 84.34009796 135.17511292 84.61817932 135.95730591 C85.81194918 139.31281638 87.00830162 142.66737739 88.20874023 146.02050781 C88.6011792 147.11991699 88.99361816 148.21932617 89.39794922 149.35205078 C89.73149414 150.28275391 90.06503906 151.21345703 90.40869141 152.17236328 C91.10107422 154.22705078 91.10107422 154.22705078 91.10107422 155.22705078 C79.22107422 155.22705078 67.34107422 155.22705078 55.10107422 155.22705078 C52.37857422 147.12142578 52.37857422 147.12142578 49.60107422 138.85205078 C48.7396582 136.29511475 48.7396582 136.29511475 47.86083984 133.68652344 C47.40942976 132.33813311 46.95824253 130.98966815 46.50732422 129.64111328 C46.26981445 128.93881592 46.03230469 128.23651855 45.78759766 127.51293945 C44.10107422 122.45519438 44.10107422 122.45519438 44.10107422 120.22705078 C25.62107422 120.22705078 7.14107422 120.22705078 -11.89892578 120.22705078 C-12.55892578 123.19705078 -13.21892578 126.16705078 -13.89892578 129.22705078 C-14.50433624 131.34043818 -15.13852973 133.4459205 -15.80908203 135.53955078 C-16.1590625 136.63396484 -16.50904297 137.72837891 -16.86962891 138.85595703 C-17.22992187 139.96841797 -17.59021484 141.08087891 -17.96142578 142.22705078 C-18.50766602 143.94214844 -18.50766602 143.94214844 -19.06494141 145.69189453 C-21.76812632 154.09625132 -21.76812632 154.09625132 -22.89892578 155.22705078 C-25.492519 155.31556607 -28.05932269 155.34231023 -30.65283203 155.32470703 C-31.42827866 155.32329208 -32.20372528 155.32187714 -33.00267029 155.32041931 C-35.48896072 155.31480423 -37.97516238 155.30224925 -40.46142578 155.28955078 C-42.14306511 155.28453772 -43.82470584 155.27997448 -45.50634766 155.27587891 C-49.63724144 155.26482991 -53.76806854 155.24755523 -57.89892578 155.22705078 C-55.82867388 148.1484058 -53.57243823 141.14969831 -51.19580078 134.16845703 C-50.66425888 132.60104515 -50.66425888 132.60104515 -50.12197876 131.00196838 C-48.96637689 127.59711764 -47.80783925 124.19327565 -46.64892578 120.78955078 C-46.24909485 119.61334167 -45.84926392 118.43713257 -45.43731689 117.22528076 C-39.53390328 99.86145335 -33.5490472 82.52788256 -27.47338867 65.22363281 C-24.08535781 55.56268371 -20.75441695 45.88450226 -17.48095703 36.18408203 C-17.11272827 35.09448181 -16.74449951 34.00488159 -16.3651123 32.88226318 C-14.56902963 27.56565632 -12.7794204 22.24701129 -11 16.92480469 C-10.35585675 15.0137587 -9.71149966 13.10278477 -9.06689453 11.19189453 C-8.62891289 9.87026054 -8.62891289 9.87026054 -8.18208313 8.52192688 C-7.90970322 7.71813095 -7.6373233 6.91433502 -7.35668945 6.08618164 C-7.12213547 5.38536972 -6.88758148 4.6845578 -6.6459198 3.96250916 C-5.06944411 0.29995248 -4.00318726 0.23312236 0 0 Z M15.10107422 28.22705078 C14.76897949 29.49073486 14.43688477 30.75441895 14.09472656 32.05639648 C12.83574097 36.84198251 11.57056266 41.62591472 10.30371094 46.40942383 C9.76106157 48.46172692 9.21998981 50.51444794 8.68066406 52.56762695 C5.68465878 63.96862657 2.58163938 75.29610057 -1.0897522 86.50080872 C-2.4191958 90.28411766 -2.4191958 90.28411766 -2.89892578 94.22705078 C9.64107422 94.22705078 22.18107422 94.22705078 35.10107422 94.22705078 C33.3877266 87.94477619 31.6784621 81.69262107 29.83154297 75.45361328 C29.62977951 74.77039001 29.42801605 74.08716675 29.22013855 73.38323975 C28.79464148 71.94243536 28.36869829 70.50176264 27.94232178 69.06121826 C23.92058809 55.47082979 19.95744047 41.86541924 16.10107422 28.22705078 C15.77107422 28.22705078 15.44107422 28.22705078 15.10107422 28.22705078 Z " fill="#2B194B" transform="translate(1386.89892578125,190.77294921875)"/>
<path d="M0 0 C1.68216214 0.00031737 3.36434441 0.01165683 5.04638672 0.03173828 C6.37390457 0.03598312 6.37390457 0.03598312 7.72824097 0.04031372 C10.56098834 0.05152838 13.39342206 0.07663508 16.22607422 0.10205078 C18.14403841 0.11207893 20.06200755 0.12120507 21.97998047 0.12939453 C26.68713298 0.15147189 31.39405038 0.18601033 36.10107422 0.22705078 C39.2032902 6.87886801 41.76095274 13.63908597 44.16357422 20.57080078 C44.54755875 21.66856842 44.93154327 22.76633606 45.3271637 23.89736938 C46.58859501 27.50606489 47.8447867 31.11656173 49.10107422 34.72705078 C49.98730725 37.2647908 50.87387347 39.80241146 51.76098633 42.33984375 C53.37582203 46.95987673 54.9894543 51.58032641 56.60146618 56.20134544 C60.84901653 68.37710232 65.11665195 80.54578924 69.38684082 92.71362305 C70.6537456 96.32404124 71.91993427 99.93470998 73.18603516 103.54541016 C76.70863627 113.58803523 80.23525853 123.62908523 83.80029297 133.65673828 C84.07019547 134.4159256 84.34009796 135.17511292 84.61817932 135.95730591 C85.81194918 139.31281638 87.00830162 142.66737739 88.20874023 146.02050781 C88.6011792 147.11991699 88.99361816 148.21932617 89.39794922 149.35205078 C89.73149414 150.28275391 90.06503906 151.21345703 90.40869141 152.17236328 C91.10107422 154.22705078 91.10107422 154.22705078 91.10107422 155.22705078 C79.22107422 155.22705078 67.34107422 155.22705078 55.10107422 155.22705078 C52.37857422 147.12142578 52.37857422 147.12142578 49.60107422 138.85205078 C48.7396582 136.29511475 48.7396582 136.29511475 47.86083984 133.68652344 C47.40942976 132.33813311 46.95824253 130.98966815 46.50732422 129.64111328 C46.26981445 128.93881592 46.03230469 128.23651855 45.78759766 127.51293945 C44.10107422 122.45519438 44.10107422 122.45519438 44.10107422 120.22705078 C25.62107422 120.22705078 7.14107422 120.22705078 -11.89892578 120.22705078 C-12.55892578 123.19705078 -13.21892578 126.16705078 -13.89892578 129.22705078 C-14.50433624 131.34043818 -15.13852973 133.4459205 -15.80908203 135.53955078 C-16.1590625 136.63396484 -16.50904297 137.72837891 -16.86962891 138.85595703 C-17.22992187 139.96841797 -17.59021484 141.08087891 -17.96142578 142.22705078 C-18.50766602 143.94214844 -18.50766602 143.94214844 -19.06494141 145.69189453 C-21.76812632 154.09625132 -21.76812632 154.09625132 -22.89892578 155.22705078 C-25.492519 155.31556607 -28.05932269 155.34231023 -30.65283203 155.32470703 C-31.42827866 155.32329208 -32.20372528 155.32187714 -33.00267029 155.32041931 C-35.48896072 155.31480423 -37.97516238 155.30224925 -40.46142578 155.28955078 C-42.14306511 155.28453772 -43.82470584 155.27997448 -45.50634766 155.27587891 C-49.63724144 155.26482991 -53.76806854 155.24755523 -57.89892578 155.22705078 C-55.82867388 148.1484058 -53.57243823 141.14969831 -51.19580078 134.16845703 C-50.66425888 132.60104515 -50.66425888 132.60104515 -50.12197876 131.00196838 C-48.96637689 127.59711764 -47.80783925 124.19327565 -46.64892578 120.78955078 C-46.24909485 119.61334167 -45.84926392 118.43713257 -45.43731689 117.22528076 C-39.53390328 99.86145335 -33.5490472 82.52788256 -27.47338867 65.22363281 C-24.08535781 55.56268371 -20.75441695 45.88450226 -17.48095703 36.18408203 C-17.11272827 35.09448181 -16.74449951 34.00488159 -16.3651123 32.88226318 C-14.56902963 27.56565632 -12.7794204 22.24701129 -11 16.92480469 C-10.35585675 15.0137587 -9.71149966 13.10278477 -9.06689453 11.19189453 C-8.62891289 9.87026054 -8.62891289 9.87026054 -8.18208313 8.52192688 C-7.90970322 7.71813095 -7.6373233 6.91433502 -7.35668945 6.08618164 C-7.12213547 5.38536972 -6.88758148 4.6845578 -6.6459198 3.96250916 C-5.06944411 0.29995248 -4.00318726 0.23312236 0 0 Z M15.10107422 28.22705078 C14.76897949 29.49073486 14.43688477 30.75441895 14.09472656 32.05639648 C12.83574097 36.84198251 11.57056266 41.62591472 10.30371094 46.40942383 C9.76106157 48.46172692 9.21998981 50.51444794 8.68066406 52.56762695 C5.68465878 63.96862657 2.58163938 75.29610057 -1.0897522 86.50080872 C-2.4191958 90.28411766 -2.4191958 90.28411766 -2.89892578 94.22705078 C9.64107422 94.22705078 22.18107422 94.22705078 35.10107422 94.22705078 C33.3877266 87.94477619 31.6784621 81.69262107 29.83154297 75.45361328 C29.62977951 74.77039001 29.42801605 74.08716675 29.22013855 73.38323975 C28.79464148 71.94243536 28.36869829 70.50176264 27.94232178 69.06121826 C23.92058809 55.47082979 19.95744047 41.86541924 16.10107422 28.22705078 C15.77107422 28.22705078 15.44107422 28.22705078 15.10107422 28.22705078 Z " fill="#2B194B" transform="translate(1090.89892578125,190.77294921875)"/>
<path d="M0 0 C1.68216214 0.00031737 3.36434441 0.01165683 5.04638672 0.03173828 C6.37390457 0.03598312 6.37390457 0.03598312 7.72824097 0.04031372 C10.56098834 0.05152838 13.39342206 0.07663508 16.22607422 0.10205078 C18.14403841 0.11207893 20.06200755 0.12120507 21.97998047 0.12939453 C26.68713298 0.15147189 31.39405038 0.18601033 36.10107422 0.22705078 C39.2032902 6.87886801 41.76095274 13.63908597 44.16357422 20.57080078 C44.54755875 21.66856842 44.93154327 22.76633606 45.3271637 23.89736938 C46.58859501 27.50606489 47.8447867 31.11656173 49.10107422 34.72705078 C49.98730725 37.2647908 50.87387347 39.80241146 51.76098633 42.33984375 C53.37582203 46.95987673 54.9894543 51.58032641 56.60146618 56.20134544 C60.84901653 68.37710232 65.11665195 80.54578924 69.38684082 92.71362305 C70.6537456 96.32404124 71.91993427 99.93470998 73.18603516 103.54541016 C76.70863627 113.58803523 80.23525853 123.62908523 83.80029297 133.65673828 C84.07019547 134.4159256 84.34009796 135.17511292 84.61817932 135.95730591 C85.81194918 139.31281638 87.00830162 142.66737739 88.20874023 146.02050781 C88.6011792 147.11991699 88.99361816 148.21932617 89.39794922 149.35205078 C89.73149414 150.28275391 90.06503906 151.21345703 90.40869141 152.17236328 C91.10107422 154.22705078 91.10107422 154.22705078 91.10107422 155.22705078 C79.22107422 155.22705078 67.34107422 155.22705078 55.10107422 155.22705078 C52.37857422 147.12142578 52.37857422 147.12142578 49.60107422 138.85205078 C48.7396582 136.29511475 48.7396582 136.29511475 47.86083984 133.68652344 C47.40942976 132.33813311 46.95824253 130.98966815 46.50732422 129.64111328 C46.26981445 128.93881592 46.03230469 128.23651855 45.78759766 127.51293945 C44.10107422 122.45519438 44.10107422 122.45519438 44.10107422 120.22705078 C25.62107422 120.22705078 7.14107422 120.22705078 -11.89892578 120.22705078 C-12.55892578 123.19705078 -13.21892578 126.16705078 -13.89892578 129.22705078 C-14.50433624 131.34043818 -15.13852973 133.4459205 -15.80908203 135.53955078 C-16.1590625 136.63396484 -16.50904297 137.72837891 -16.86962891 138.85595703 C-17.22992188 139.96841797 -17.59021484 141.08087891 -17.96142578 142.22705078 C-18.50766602 143.94214844 -18.50766602 143.94214844 -19.06494141 145.69189453 C-21.76812632 154.09625132 -21.76812632 154.09625132 -22.89892578 155.22705078 C-25.492519 155.31556607 -28.05932269 155.34231023 -30.65283203 155.32470703 C-31.42827866 155.32329208 -32.20372528 155.32187714 -33.00267029 155.32041931 C-35.48896072 155.31480423 -37.97516238 155.30224925 -40.46142578 155.28955078 C-42.14306511 155.28453772 -43.82470584 155.27997448 -45.50634766 155.27587891 C-49.63724144 155.26482991 -53.76806854 155.24755523 -57.89892578 155.22705078 C-55.82867388 148.1484058 -53.57243823 141.14969831 -51.19580078 134.16845703 C-50.66425888 132.60104515 -50.66425888 132.60104515 -50.12197876 131.00196838 C-48.96637689 127.59711764 -47.80783925 124.19327565 -46.64892578 120.78955078 C-46.24909485 119.61334167 -45.84926392 118.43713257 -45.43731689 117.22528076 C-39.53390328 99.86145335 -33.5490472 82.52788256 -27.47338867 65.22363281 C-24.08535781 55.56268371 -20.75441695 45.88450226 -17.48095703 36.18408203 C-17.11272827 35.09448181 -16.74449951 34.00488159 -16.3651123 32.88226318 C-14.56902963 27.56565632 -12.7794204 22.24701129 -11 16.92480469 C-10.35585675 15.0137587 -9.71149966 13.10278477 -9.06689453 11.19189453 C-8.62891289 9.87026054 -8.62891289 9.87026054 -8.18208313 8.52192688 C-7.90970322 7.71813095 -7.6373233 6.91433502 -7.35668945 6.08618164 C-7.12213547 5.38536972 -6.88758148 4.6845578 -6.6459198 3.96250916 C-5.06944411 0.29995248 -4.00318726 0.23312236 0 0 Z M15.10107422 28.22705078 C14.76897949 29.49073486 14.43688477 30.75441895 14.09472656 32.05639648 C12.83574097 36.84198251 11.57056266 41.62591472 10.30371094 46.40942383 C9.76106157 48.46172692 9.21998981 50.51444794 8.68066406 52.56762695 C5.68465878 63.96862657 2.58163938 75.29610057 -1.0897522 86.50080872 C-2.4191958 90.28411766 -2.4191958 90.28411766 -2.89892578 94.22705078 C9.64107422 94.22705078 22.18107422 94.22705078 35.10107422 94.22705078 C33.3877266 87.94477619 31.6784621 81.69262107 29.83154297 75.45361328 C29.62977951 74.77039001 29.42801605 74.08716675 29.22013855 73.38323975 C28.79464148 71.94243536 28.36869829 70.50176264 27.94232178 69.06121826 C23.92058809 55.47082979 19.95744047 41.86541924 16.10107422 28.22705078 C15.77107422 28.22705078 15.44107422 28.22705078 15.10107422 28.22705078 Z " fill="#2B194B" transform="translate(184.89892578125,190.77294921875)"/>
<path d="M0 0 C1.77206192 0.00015919 3.54412846 0.00585754 5.31616211 0.01586914 C6.24698105 0.01728409 7.17779999 0.01869904 8.13682556 0.02015686 C11.12241777 0.02577367 14.10793615 0.03832899 17.09350586 0.05102539 C19.11238499 0.05603823 21.13126529 0.06060151 23.15014648 0.06469727 C28.11046158 0.07574856 33.07072118 0.09302444 38.03100586 0.11352539 C51.50431821 37.58095626 64.61180497 75.17968975 77.77434921 112.75714111 C78.46250427 114.7213946 79.15096468 116.68554081 79.83950806 118.6496582 C81.13232546 122.33774283 82.42355149 126.02638351 83.71459961 129.71508789 C84.28218491 131.33370224 84.28218491 131.33370224 84.86123657 132.98501587 C85.22075409 134.01307343 85.58027161 135.04113098 85.95068359 136.1003418 C86.257556 136.97671295 86.56442841 137.85308411 86.88059998 138.75601196 C88.63074123 143.86388116 90.32357146 148.9912222 92.03100586 154.11352539 C80.15100586 154.11352539 68.27100586 154.11352539 56.03100586 154.11352539 C53.30850586 146.00790039 53.30850586 146.00790039 50.53100586 137.73852539 C49.66958984 135.18158936 49.66958984 135.18158936 48.79077148 132.57299805 C48.3393614 131.22460772 47.88817417 129.87614275 47.43725586 128.52758789 C47.19974609 127.82529053 46.96223633 127.12299316 46.7175293 126.39941406 C45.03100586 121.34166899 45.03100586 121.34166899 45.03100586 119.11352539 C26.55100586 119.11352539 8.07100586 119.11352539 -10.96899414 119.11352539 C-11.62899414 122.08352539 -12.28899414 125.05352539 -12.96899414 128.11352539 C-13.5744046 130.22691279 -14.20859809 132.33239511 -14.87915039 134.42602539 C-15.22913086 135.52043945 -15.57911133 136.61485352 -15.93969727 137.74243164 C-16.29999023 138.85489258 -16.6602832 139.96735352 -17.03149414 141.11352539 C-17.57773437 142.82862305 -17.57773437 142.82862305 -18.13500977 144.57836914 C-20.83819468 152.98272593 -20.83819468 152.98272593 -21.96899414 154.11352539 C-24.56258736 154.20204068 -27.12939105 154.22878484 -29.72290039 154.21118164 C-30.49834702 154.20976669 -31.27379364 154.20835175 -32.07273865 154.20689392 C-34.55902908 154.20127884 -37.04523074 154.18872385 -39.53149414 154.17602539 C-41.21313347 154.17101233 -42.8947742 154.16644909 -44.57641602 154.16235352 C-48.7073098 154.15130452 -52.8381369 154.13402984 -56.96899414 154.11352539 C-54.89874224 147.03488041 -52.64250659 140.03617292 -50.26586914 133.05493164 C-49.73432724 131.48751976 -49.73432724 131.48751976 -49.19204712 129.88844299 C-48.03644525 126.48359225 -46.87790761 123.07975026 -45.71899414 119.67602539 C-45.31916321 118.49981628 -44.91933228 117.32360718 -44.50738525 116.11175537 C-38.89577791 99.60622355 -33.21597771 83.12604328 -27.44488525 66.67562866 C-23.75097641 56.14586984 -20.10140939 45.60261454 -16.51586914 35.03540039 C-16.14527374 33.94343353 -15.77467834 32.85146667 -15.39285278 31.72640991 C-13.58434456 26.39372844 -11.78056646 21.059491 -9.98217773 15.72338867 C-9.33459588 13.80914926 -8.68697432 11.89492327 -8.03930664 9.98071289 C-7.59358307 8.65133698 -7.59358307 8.65133698 -7.13885498 7.29510498 C-4.71201167 0.13477797 -4.71201167 0.13477797 0 0 Z M16.03100586 27.11352539 C15.69891113 28.37720947 15.36681641 29.64089355 15.0246582 30.94287109 C13.76567261 35.72845711 12.5004943 40.51238933 11.23364258 45.29589844 C10.69099321 47.34820153 10.14992145 49.40092255 9.6105957 51.45410156 C6.61459042 62.85510118 3.51157102 74.18257518 -0.15982056 85.38728333 C-1.48926416 89.17059227 -1.48926416 89.17059227 -1.96899414 93.11352539 C10.57100586 93.11352539 23.11100586 93.11352539 36.03100586 93.11352539 C34.31765824 86.8312508 32.60839374 80.57909568 30.76147461 74.34008789 C30.55971115 73.65686462 30.35794769 72.97364136 30.15007019 72.26971436 C29.72457312 70.82890996 29.29862993 69.38823725 28.87225342 67.94769287 C24.85051973 54.35730439 20.88737211 40.75189385 17.03100586 27.11352539 C16.70100586 27.11352539 16.37100586 27.11352539 16.03100586 27.11352539 Z " fill="#2B194B" transform="translate(664.968994140625,-0.113525390625)"/>
<path d="M0 0 C1.77206192 0.00015919 3.54412846 0.00585754 5.31616211 0.01586914 C6.24698105 0.01728409 7.17779999 0.01869904 8.13682556 0.02015686 C11.12241777 0.02577367 14.10793615 0.03832899 17.09350586 0.05102539 C19.11238499 0.05603823 21.13126529 0.06060151 23.15014648 0.06469727 C28.11046158 0.07574856 33.07072118 0.09302444 38.03100586 0.11352539 C51.50431821 37.58095626 64.61180497 75.17968975 77.77434921 112.75714111 C78.46250427 114.7213946 79.15096468 116.68554081 79.83950806 118.6496582 C81.13232546 122.33774283 82.42355149 126.02638351 83.71459961 129.71508789 C84.28218491 131.33370224 84.28218491 131.33370224 84.86123657 132.98501587 C85.22075409 134.01307343 85.58027161 135.04113098 85.95068359 136.1003418 C86.257556 136.97671295 86.56442841 137.85308411 86.88059998 138.75601196 C88.63074123 143.86388116 90.32357146 148.9912222 92.03100586 154.11352539 C80.15100586 154.11352539 68.27100586 154.11352539 56.03100586 154.11352539 C53.30850586 146.00790039 53.30850586 146.00790039 50.53100586 137.73852539 C49.66958984 135.18158936 49.66958984 135.18158936 48.79077148 132.57299805 C48.3393614 131.22460772 47.88817417 129.87614275 47.43725586 128.52758789 C47.19974609 127.82529053 46.96223633 127.12299316 46.7175293 126.39941406 C45.03100586 121.34166899 45.03100586 121.34166899 45.03100586 119.11352539 C26.55100586 119.11352539 8.07100586 119.11352539 -10.96899414 119.11352539 C-11.62899414 122.08352539 -12.28899414 125.05352539 -12.96899414 128.11352539 C-13.5744046 130.22691279 -14.20859809 132.33239511 -14.87915039 134.42602539 C-15.22913086 135.52043945 -15.57911133 136.61485352 -15.93969727 137.74243164 C-16.29999023 138.85489258 -16.6602832 139.96735352 -17.03149414 141.11352539 C-17.57773437 142.82862305 -17.57773437 142.82862305 -18.13500977 144.57836914 C-20.83819468 152.98272593 -20.83819468 152.98272593 -21.96899414 154.11352539 C-24.56258736 154.20204068 -27.12939105 154.22878484 -29.72290039 154.21118164 C-30.49834702 154.20976669 -31.27379364 154.20835175 -32.07273865 154.20689392 C-34.55902908 154.20127884 -37.04523074 154.18872385 -39.53149414 154.17602539 C-41.21313347 154.17101233 -42.8947742 154.16644909 -44.57641602 154.16235352 C-48.7073098 154.15130452 -52.8381369 154.13402984 -56.96899414 154.11352539 C-54.89874224 147.03488041 -52.64250659 140.03617292 -50.26586914 133.05493164 C-49.73432724 131.48751976 -49.73432724 131.48751976 -49.19204712 129.88844299 C-48.03644525 126.48359225 -46.87790761 123.07975026 -45.71899414 119.67602539 C-45.31916321 118.49981628 -44.91933228 117.32360718 -44.50738525 116.11175537 C-38.89577791 99.60622355 -33.21597771 83.12604328 -27.44488525 66.67562866 C-23.75097641 56.14586984 -20.10140939 45.60261454 -16.51586914 35.03540039 C-16.14527374 33.94343353 -15.77467834 32.85146667 -15.39285278 31.72640991 C-13.58434456 26.39372844 -11.78056646 21.059491 -9.98217773 15.72338867 C-9.33459588 13.80914926 -8.68697432 11.89492327 -8.03930664 9.98071289 C-7.59358307 8.65133698 -7.59358307 8.65133698 -7.13885498 7.29510498 C-4.71201167 0.13477797 -4.71201167 0.13477797 0 0 Z M16.03100586 27.11352539 C15.69891113 28.37720947 15.36681641 29.64089355 15.0246582 30.94287109 C13.76567261 35.72845711 12.5004943 40.51238933 11.23364258 45.29589844 C10.69099321 47.34820153 10.14992145 49.40092255 9.6105957 51.45410156 C6.61459042 62.85510118 3.51157102 74.18257518 -0.15982056 85.38728333 C-1.48926416 89.17059227 -1.48926416 89.17059227 -1.96899414 93.11352539 C10.57100586 93.11352539 23.11100586 93.11352539 36.03100586 93.11352539 C34.31765824 86.8312508 32.60839374 80.57909568 30.76147461 74.34008789 C30.55971115 73.65686462 30.35794769 72.97364136 30.15007019 72.26971436 C29.72457312 70.82890996 29.29862993 69.38823725 28.87225342 67.94769287 C24.85051973 54.35730439 20.88737211 40.75189385 17.03100586 27.11352539 C16.70100586 27.11352539 16.37100586 27.11352539 16.03100586 27.11352539 Z " fill="#2B194B" transform="translate(504.968994140625,-0.113525390625)"/>
<path d="M0 0 C1.31250229 -0.00422974 1.31250229 -0.00422974 2.65151978 -0.00854492 C4.1024855 -0.00550858 4.1024855 -0.00550858 5.58276367 -0.00241089 C6.59567474 -0.00416321 7.60858582 -0.00591553 8.65219116 -0.00772095 C12.01838874 -0.01214158 15.38453426 -0.00920073 18.75073242 -0.00582886 C21.07861338 -0.00650184 23.40649428 -0.00747181 25.734375 -0.00872803 C30.62036811 -0.01020529 35.50634299 -0.00804954 40.39233398 -0.00338745 C46.67095898 0.00230985 52.94954124 -0.00096901 59.22816467 -0.00695992 C64.03723475 -0.01056477 68.84629461 -0.00942729 73.65536499 -0.00683212 C75.97114059 -0.00616264 78.28691711 -0.006992 80.60269165 -0.00931168 C83.83305334 -0.01183696 87.06334475 -0.00799935 90.29370117 -0.00241089 C91.26101166 -0.00443512 92.22832214 -0.00645935 93.22494507 -0.00854492 C94.09994659 -0.0057251 94.97494812 -0.00290527 95.87646484 0 C96.64117599 0.00037703 97.40588715 0.00075405 98.19377136 0.0011425 C99.93823242 0.12698364 99.93823242 0.12698364 100.93823242 1.12698364 C100.93823242 9.70698364 100.93823242 18.28698364 100.93823242 27.12698364 C76.51823242 27.12698364 52.09823242 27.12698364 26.93823242 27.12698364 C26.93823242 39.33698364 26.93823242 51.54698364 26.93823242 64.12698364 C49.37823242 64.12698364 71.81823242 64.12698364 94.93823242 64.12698364 C94.93823242 72.70698364 94.93823242 81.28698364 94.93823242 90.12698364 C72.49823242 90.12698364 50.05823242 90.12698364 26.93823242 90.12698364 C26.93823242 102.66698364 26.93823242 115.20698364 26.93823242 128.12698364 C32.19631836 128.11538208 37.4544043 128.10378052 42.87182617 128.09182739 C46.19409302 128.08672055 49.51635507 128.08190677 52.83862305 128.07815552 C58.11703491 128.0721674 63.39542949 128.06506792 68.67382812 128.05154419 C72.92724357 128.0407142 77.18064051 128.03470657 81.43406868 128.0321064 C83.06044875 128.03025235 84.68682776 128.02663212 86.3132 128.02125359 C88.58333435 128.01404166 90.85339127 128.01299276 93.12353516 128.01345825 C95.06545998 128.01012733 95.06545998 128.01012733 97.0466156 128.00672913 C99.93823242 128.12698364 99.93823242 128.12698364 100.93823242 129.12698364 C100.93823242 137.70698364 100.93823242 146.28698364 100.93823242 155.12698364 C65.95823242 155.12698364 30.97823242 155.12698364 -5.06176758 155.12698364 C-5.10207061 116.54802367 -5.10207061 116.54802367 -5.1105957 100.43362427 C-5.11653905 89.2885187 -5.12354169 78.14342067 -5.13720703 66.99832153 C-5.14715284 58.88293005 -5.15362076 50.76754465 -5.15585607 42.65214723 C-5.15716336 38.35238576 -5.16025032 34.05264172 -5.16749763 29.75288582 C-5.17425622 25.71055522 -5.17638487 21.66824933 -5.17487526 17.62591362 C-5.17515166 16.13794191 -5.17715774 14.64996941 -5.18097305 13.16200256 C-5.18590771 11.13923227 -5.18416574 9.11644889 -5.18202209 7.09367371 C-5.18294389 5.95894654 -5.18386568 4.82421938 -5.18481541 3.65510654 C-4.98609703 -0.42773252 -3.68074972 0.00181472 0 0 Z " fill="#2B194B" transform="translate(589.061767578125,190.87301635742188)"/>
<path d="M0 0 C34.98 0 69.96 0 106 0 C106 8.58 106 17.16 106 26 C81.58 26 57.16 26 32 26 C32 38.21 32 50.42 32 63 C54.44 63 76.88 63 100 63 C100 71.58 100 80.16 100 89 C77.56 89 55.12 89 32 89 C32 101.54 32 114.08 32 127 C37.25808594 126.98839844 42.51617187 126.97679688 47.93359375 126.96484375 C51.2558606 126.95973691 54.57812264 126.95492313 57.90039062 126.95117188 C63.17880248 126.94518375 68.45719707 126.93808428 73.7355957 126.92456055 C77.98901115 126.91373056 82.24240809 126.90772293 86.49583626 126.90512276 C88.12221633 126.90326871 89.74859534 126.89964848 91.37496758 126.89426994 C93.64510193 126.88705802 95.91515885 126.88600912 98.18530273 126.88647461 C100.12722755 126.88314369 100.12722755 126.88314369 102.10838318 126.87974548 C105 127 105 127 106 128 C106 136.58 106 145.16 106 154 C71.02 154 36.04 154 0 154 C0 103.18 0 52.36 0 0 Z " fill="#2B194B" transform="translate(132,0)"/>
<path d="M0 0 C9.57 0 19.14 0 29 0 C34.52713235 9.53701269 39.83274549 19.17577667 45.0612793 28.87963867 C48.48333062 35.2242262 51.96525589 41.53016068 55.5 47.8125 C59.0129173 54.07084157 62.18490937 60.39237916 65 67 C65.48033691 66.03497559 65.96067383 65.06995117 66.45556641 64.07568359 C71.36516381 54.22583007 76.3377608 44.41016929 81.375 34.625 C81.74140594 33.91264191 82.10781189 33.20028381 82.48532104 32.46633911 C88.11948151 21.52309243 93.92359422 10.70604828 100 0 C112.21 0 124.42 0 137 0 C135.46225159 3.84437103 133.90554866 7.10237512 131.8671875 10.6640625 C131.23417725 11.77217285 130.60116699 12.8802832 129.94897461 14.02197266 C129.25785491 15.22309985 128.5665243 16.4241057 127.875 17.625 C127.1556352 18.87936865 126.4363163 20.13376362 125.71704102 21.38818359 C120.21700581 30.96209083 114.60515561 40.46722304 108.95507812 49.95336914 C103.56898838 59.00558179 98.28694633 68.11334856 93.04663086 77.25048828 C92.47178955 78.25192871 91.89694824 79.25336914 91.3046875 80.28515625 C90.80952637 81.15019775 90.31436523 82.01523926 89.80419922 82.90649414 C88 86 88 86 86.48684692 88.09368896 C81.55318757 95.28749779 81.13232693 101.30177783 81.1953125 109.8828125 C81.18160614 111.17822968 81.16789978 112.47364685 81.15377808 113.80831909 C81.11802904 117.21806675 81.11732898 120.62691264 81.12445068 124.0368042 C81.12536957 127.52990061 81.0927426 131.02268231 81.0625 134.515625 C81.00579561 141.34445407 81.00425007 148.17013488 81 155 C70.44 155 59.88 155 49 155 C49.07863281 150.99617187 49.15726563 146.99234375 49.23828125 142.8671875 C49.2646217 139.6052165 49.27765933 136.34377269 49.28195953 133.08172607 C49.28999084 129.67525306 49.31954726 126.27260284 49.40795898 122.8671875 C49.83393627 104.13804005 47.70220072 91.62729 36.65322876 76.33300781 C34.25478127 72.94836023 32.20175065 69.39456171 30.13671875 65.80078125 C29.39698364 64.55209001 28.65522358 63.30459599 27.91137695 62.05834961 C26.36361762 59.45455291 24.82286787 56.84674601 23.28588867 54.23657227 C19.73200216 48.21114522 16.16410882 42.20591268 12.3969574 36.3106842 C10.87535822 33.92619151 9.37744373 31.52723629 7.88076782 29.12704468 C6.8521101 27.50014631 5.78835713 25.89560066 4.72338867 24.29223633 C-0.59551324 15.72583137 -0.6238691 9.85026344 0 0 Z " fill="#2B194B" transform="translate(0,191)"/>
<path d="M0 0 C41.58 0 83.16 0 126 0 C126 8.91 126 17.82 126 27 C110.49 27 94.98 27 79 27 C79 69.24 79 111.48 79 155 C68.44 155 57.88 155 47 155 C47 112.76 47 70.52 47 27 C31.49 27 15.98 27 0 27 C0 18.09 0 9.18 0 0 Z " fill="#2B194B" transform="translate(1470,191)"/>
<path d="M0 0 C41.58 0 83.16 0 126 0 C126 8.58 126 17.16 126 26 C110.49 26 94.98 26 79 26 C79 68.24 79 110.48 79 154 C68.44 154 57.88 154 47 154 C47 111.76 47 69.52 47 26 C31.49 26 15.98 26 0 26 C0 17.42 0 8.84 0 0 Z " fill="#2B194B" transform="translate(748,0)"/>
<path d="M0 0 C10.56 0 21.12 0 32 0 C32.06796209 14.62195628 32.12312353 29.24381311 32.15543652 43.86589241 C32.17084493 50.65658383 32.19181767 57.44716948 32.22631836 64.23779297 C32.25963993 70.79951448 32.27688808 77.3611677 32.28463173 83.92296982 C32.29014543 86.41781206 32.30091179 88.91264877 32.31719017 91.407444 C32.55145121 128.82114305 32.55145121 128.82114305 19.375 143.3125 C8.8225691 153.12123577 -5.40127023 156.57934804 -19.4375 156.375 C-20.44449951 156.36557373 -21.45149902 156.35614746 -22.48901367 156.34643555 C-36.34534034 156.06516276 -48.88373778 152.61023829 -59.1875 142.9296875 C-71.6169737 129.69658404 -71.44280055 115.1585213 -71 98 C-60.77 98 -50.54 98 -40 98 C-39.505 104.93 -39.505 104.93 -39 112 C-37.55660821 119.33697389 -37.55660821 119.33697389 -33.125 125 C-26.78859186 129.05530121 -21.4252065 129.82155646 -14 129 C-9.30428584 127.69736833 -6.1245159 125.75322601 -3.5625 121.5625 C-1.56098378 116.99904301 -0.88036565 113.06410225 -0.84178162 108.10881042 C-0.8319928 107.1511377 -0.82220398 106.19346497 -0.81211853 105.20677185 C-0.80636307 104.16811478 -0.8006076 103.1294577 -0.79467773 102.05932617 C-0.78477814 100.95644257 -0.77487854 99.85355896 -0.76467896 98.71725464 C-0.73311937 95.07584776 -0.70832832 91.43442785 -0.68359375 87.79296875 C-0.66301945 85.26662357 -0.64202285 82.74028179 -0.62062073 80.21394348 C-0.57108684 74.24654134 -0.52580879 68.27912162 -0.48259836 62.31167156 C-0.43315289 55.51600686 -0.37826196 48.72038954 -0.32291877 41.92477071 C-0.20922976 27.94988968 -0.10308122 13.97496309 0 0 Z " fill="#2B194B" transform="translate(74,0)"/>
<path d="M0 0 C10.23 0 20.46 0 31 0 C31 42.24 31 84.48 31 128 C53.0047729 127.96038651 53.0047729 127.96038651 75.00952148 127.90991211 C77.75504518 127.90699327 80.50056931 127.90444464 83.24609375 127.90234375 C83.9641066 127.89973038 84.68211945 127.897117 85.42189026 127.89442444 C87.52664519 127.88714429 89.63131842 127.88609267 91.73608398 127.88647461 C92.92411118 127.884254 94.11213837 127.88203339 95.33616638 127.87974548 C98 128 98 128 99 129 C99 137.58 99 146.16 99 155 C66 155 33 155 -1 155 C-1.04030303 116.42104002 -1.04030303 116.42104002 -1.04882812 100.30664062 C-1.05477147 89.16153506 -1.06177412 78.01643702 -1.07543945 66.87133789 C-1.08538526 58.7559464 -1.09185318 50.640561 -1.09408849 42.52516359 C-1.09539578 38.22540212 -1.09848274 33.92565808 -1.10573006 29.62590218 C-1.11248865 25.58357158 -1.11461729 21.54126568 -1.11310768 17.49892998 C-1.11338408 16.01095826 -1.11539016 14.52298577 -1.11920547 13.03501892 C-1.12414014 11.01224862 -1.12239816 8.98946524 -1.12025452 6.96669006 C-1.12117631 5.8319629 -1.1220981 4.69723574 -1.12304783 3.5281229 C-1 1 -1 1 0 0 Z " fill="#2B194B" transform="translate(923,191)"/>
</svg>
