<?xml version="1.0" encoding="UTF-8"?>
<svg version="1.1" xmlns="http://www.w3.org/2000/svg" width="626" height="626">
<path d="M0 0 C1.1869899 -0.00902847 2.3739798 -0.01805695 3.59693909 -0.02735901 C6.1073253 -0.04181125 8.61774875 -0.05073567 11.12817383 -0.05444336 C14.87195274 -0.06618836 18.61399735 -0.11529842 22.35742188 -0.16601562 C40.34712815 -0.28547313 59.64950554 0.39853968 76.50390625 7.37109375 C78.28829096 7.83740577 80.08085659 8.27311463 81.87890625 8.68359375 C92.57216248 11.31092943 102.72040409 14.60451037 112.4296875 19.84375 C115.02409867 21.13271412 117.56178206 22.18480978 120.26171875 23.21875 C125.49245482 25.27718443 130.23985556 27.88119969 135.06640625 30.74609375 C135.85208984 31.20242187 136.63777344 31.65875 137.44726562 32.12890625 C145.83371452 37.04343433 153.80716488 42.45864457 161.56640625 48.30859375 C162.6018457 49.08855713 162.6018457 49.08855713 163.65820312 49.88427734 C174.60880981 58.190297 174.60880981 58.190297 177.50390625 61.37109375 C177.50390625 62.03109375 177.50390625 62.69109375 177.50390625 63.37109375 C178.07882812 63.61730469 178.65375 63.86351562 179.24609375 64.1171875 C181.86030452 65.56902428 183.56726833 67.27396924 185.62890625 69.43359375 C188.28295625 72.28681308 188.28295625 72.28681308 191.50390625 74.37109375 C191.50390625 75.36109375 191.50390625 76.35109375 191.50390625 77.37109375 C192.49390625 77.37109375 193.48390625 77.37109375 194.50390625 77.37109375 C195.56337558 79.00060365 196.55394275 80.6754089 197.50390625 82.37109375 C198.80001082 83.94418841 200.13437251 85.48649406 201.50390625 86.99609375 C202.18453125 87.75148438 202.86515625 88.506875 203.56640625 89.28515625 C204.73691241 90.54533829 205.93810518 91.77916034 207.19140625 92.95703125 C208.50390625 94.37109375 208.50390625 94.37109375 209.50390625 97.37109375 C210.49586173 98.37907407 211.49704608 99.37800131 212.50390625 100.37109375 C213.5409713 101.89251278 214.53619943 103.44286303 215.5 105.01171875 C216.05880859 105.91792969 216.61761719 106.82414062 217.19335938 107.7578125 C217.77021484 108.70269531 218.34707031 109.64757812 218.94140625 110.62109375 C219.80088867 112.01521484 219.80088867 112.01521484 220.67773438 113.4375 C229.41570528 127.65555623 229.41570528 127.65555623 230.50390625 132.37109375 C231.16390625 132.70109375 231.82390625 133.03109375 232.50390625 133.37109375 C233.52248091 135.79954302 234.44107271 138.20381138 235.31640625 140.68359375 C235.8484118 142.15041138 236.38228441 143.61655311 236.91796875 145.08203125 C237.31677246 146.17402832 237.31677246 146.17402832 237.72363281 147.28808594 C238.80044001 150.16271641 239.98760083 152.98512285 241.19140625 155.80859375 C244.17059061 162.87460794 246.47894244 169.81158084 248.03515625 177.3203125 C248.505049 179.55769406 248.505049 179.55769406 249.56640625 182.37109375 C250.54733917 185.51007908 250.8492783 188.34065091 251.14060974 191.59916687 C251.55357077 194.75003058 252.2728331 197.75643279 253.01196289 200.84692383 C254.54202063 207.89401283 254.95607408 214.56505551 254.9375 221.7578125 C254.94274185 222.98031204 254.9479837 224.20281158 254.9533844 225.46235657 C254.9597584 228.02950284 254.95852826 230.5966785 254.94995117 233.16381836 C254.94146397 237.03228406 254.97023551 240.89925835 255.00195312 244.76757812 C255.04148555 258.8770279 254.06109059 271.72477349 250.50390625 285.37109375 C250.12745742 287.23255695 249.76367891 289.09670857 249.421875 290.96484375 C248.48614011 295.68331501 247.21034634 300.26914383 245.81640625 304.87109375 C245.55875488 305.72477539 245.30110352 306.57845703 245.03564453 307.45800781 C241.64075277 318.46046037 237.68200944 329.30642364 232.42504883 339.56323242 C231.52155251 341.33646069 230.6683566 343.13503191 229.81640625 344.93359375 C220.76131274 363.04378076 208.64631108 379.08612066 195.50390625 394.37109375 C194.80265625 395.18707031 194.10140625 396.00304687 193.37890625 396.84375 C187.17565376 403.99620708 187.17565376 403.99620708 184.50390625 406.37109375 C183.84390625 406.37109375 183.18390625 406.37109375 182.50390625 406.37109375 C182.17390625 407.36109375 181.84390625 408.35109375 181.50390625 409.37109375 C179.8671875 411.01953125 179.8671875 411.01953125 177.81640625 412.74609375 C177.09839844 413.35324219 176.38039063 413.96039063 175.640625 414.5859375 C174.93550781 415.17503906 174.23039062 415.76414062 173.50390625 416.37109375 C172.91222656 416.88800781 172.32054687 417.40492188 171.7109375 417.9375 C167.74909856 421.37109375 167.74909856 421.37109375 165.50390625 421.37109375 C165.50390625 422.03109375 165.50390625 422.69109375 165.50390625 423.37109375 C163.78125 424.95703125 163.78125 424.95703125 161.44140625 426.74609375 C160.68730469 427.33132813 159.93320312 427.9165625 159.15625 428.51953125 C156.60995752 430.2970609 153.99148068 431.83401179 151.2824707 433.34863281 C148.48167085 434.95875632 145.81873009 436.77080527 143.12890625 438.55859375 C127.69898912 448.62753626 111.05995169 456.53856461 93.5859375 462.33984375 C91.53802958 463.0250753 89.49977163 463.73988031 87.47265625 464.484375 C78.21214815 467.68592454 68.84339024 469.53214474 59.19140625 471.12109375 C57.91652344 471.33161377 56.64164062 471.54213379 55.328125 471.7590332 C42.44681348 473.80779909 29.84157036 474.60761159 16.81640625 474.62109375 C16.04822571 474.62243317 15.28004517 474.62377258 14.48858643 474.62515259 C0.96798105 474.62006794 -12.14495283 473.57762047 -25.49609375 471.37109375 C-27.14965329 471.11662611 -28.80329634 470.86270043 -30.45703125 470.609375 C-36.72122442 469.60326007 -42.57943252 468.43502166 -48.48681641 466.10473633 C-51.06207439 465.16443861 -53.70167682 464.57099597 -56.36621094 463.93896484 C-60.55475774 462.82221108 -64.5776389 461.23472113 -68.62109375 459.68359375 C-69.53890625 459.33345215 -70.45671875 458.98331055 -71.40234375 458.62255859 C-78.03973974 456.04406039 -84.38708417 453.13441987 -90.68359375 449.81640625 C-96.7397304 446.66816397 -96.7397304 446.66816397 -103.37109375 447.05859375 C-104.17289062 447.22746094 -104.9746875 447.39632813 -105.80078125 447.5703125 C-108.64365961 448.35699881 -108.64365961 448.35699881 -111.81640625 449.8046875 C-115.66660043 451.44367674 -119.47541388 452.62228383 -123.49609375 453.74609375 C-132.47856001 456.32067344 -141.31025921 459.24841415 -150.1484375 462.28125 C-151.27958984 462.66603516 -151.27958984 462.66603516 -152.43359375 463.05859375 C-153.04074219 463.26871094 -153.64789063 463.47882813 -154.2734375 463.6953125 C-156.17353659 464.27302277 -158.10098067 464.75945865 -160.03125 465.2265625 C-165.43380367 466.55896379 -170.70372157 468.28488928 -175.99609375 469.99609375 C-177.07963135 470.34438232 -178.16316895 470.6926709 -179.27954102 471.05151367 C-187.99109233 473.86130547 -196.67878451 476.74124933 -205.3515625 479.66845703 C-210.70677699 481.47004542 -216.07549432 483.17252297 -221.50219727 484.74682617 C-223.5402876 485.32671513 -223.5402876 485.32671513 -225.49609375 486.37109375 C-227.49569387 486.41108575 -229.49656617 486.41456174 -231.49609375 486.37109375 C-231.40697365 485.01585367 -231.29881382 483.66186475 -231.18359375 482.30859375 C-231.12558594 481.55449219 -231.06757813 480.80039062 -231.0078125 480.0234375 C-230.33780686 476.55066019 -228.92679061 473.60068151 -227.49609375 470.37109375 C-226.74041291 468.21353148 -226.01242861 466.04612133 -225.30859375 463.87109375 C-222.75745131 456.07177108 -220.06080213 448.32544931 -217.35083008 440.58007812 C-215.83220306 436.23406418 -214.32616079 431.88598871 -212.87890625 427.515625 C-211.53324814 423.45240718 -210.06348232 419.44426581 -208.55859375 415.4375 C-207.66328215 412.85360439 -206.86274795 410.27422137 -206.08984375 407.65234375 C-204.55467205 402.47644294 -202.80581218 397.39398158 -200.99609375 392.30859375 C-197.86650528 383.4733145 -194.81211814 374.64934881 -192.2421875 365.6328125 C-191.49609375 363.37109375 -191.49609375 363.37109375 -190.2890625 361.3046875 C-189.25133314 359.39392541 -189.25133314 359.39392541 -190.17578125 357.51953125 C-190.57023437 356.93429687 -190.9646875 356.3490625 -191.37109375 355.74609375 C-193.49609375 352.37109375 -193.49609375 352.37109375 -193.49609375 350.37109375 C-194.15609375 350.37109375 -194.81609375 350.37109375 -195.49609375 350.37109375 C-196.76772031 347.51727986 -198.03824813 344.66297804 -199.30859375 341.80859375 C-199.66501953 341.00873047 -200.02144531 340.20886719 -200.38867188 339.38476562 C-202.00484814 335.75207586 -203.61122165 332.11729898 -205.1640625 328.45703125 C-206.44300995 325.37762899 -206.44300995 325.37762899 -207.99609375 322.55859375 C-210.00757183 318.28420282 -211.21521295 313.90959926 -212.49609375 309.37109375 C-212.96015625 307.80681641 -212.96015625 307.80681641 -213.43359375 306.2109375 C-220.50362461 282.1562622 -220.50362461 282.1562622 -221.26000977 271.85400391 C-221.55612179 268.73977504 -222.03773776 265.66483819 -222.49609375 262.5703125 C-223.5921246 254.65401533 -223.89366546 246.80005438 -223.87109375 238.80859375 C-223.87088226 238.10642731 -223.87067078 237.40426086 -223.87045288 236.68081665 C-223.79766494 212.10919465 -220.12421325 187.76174036 -212.20703125 164.46777344 C-211.47062103 162.29597022 -210.7631567 160.11590885 -210.05859375 157.93359375 C-205.87343197 145.50622561 -200.29117608 133.58901073 -193.49609375 122.37109375 C-192.80856074 120.71292591 -192.14048092 119.04650039 -191.49609375 117.37109375 C-190.84395836 116.03059323 -190.18229406 114.69448007 -189.49609375 113.37109375 C-188.83609375 113.37109375 -188.17609375 113.37109375 -187.49609375 113.37109375 C-187.20734375 112.62859375 -186.91859375 111.88609375 -186.62109375 111.12109375 C-185.67306731 108.80369578 -184.64763464 106.5919226 -183.49609375 104.37109375 C-182.83609375 104.37109375 -182.17609375 104.37109375 -181.49609375 104.37109375 C-181.49609375 103.38109375 -181.49609375 102.39109375 -181.49609375 101.37109375 C-180.83609375 101.37109375 -180.17609375 101.37109375 -179.49609375 101.37109375 C-179.109375 100.53771484 -179.109375 100.53771484 -178.71484375 99.6875 C-174.41870972 91.52209142 -168.06288234 84.5838393 -161.81640625 77.87890625 C-159.8895831 75.79638022 -158.05309232 73.68152134 -156.24609375 71.49609375 C-153.60555588 68.36933786 -150.68990601 65.92614356 -147.49609375 63.37109375 C-146.91859375 62.77296875 -146.34109375 62.17484375 -145.74609375 61.55859375 C-144.49609375 60.37109375 -144.49609375 60.37109375 -142.49609375 60.37109375 C-142.49609375 59.71109375 -142.49609375 59.05109375 -142.49609375 58.37109375 C-141.83609375 58.37109375 -141.17609375 58.37109375 -140.49609375 58.37109375 C-140.49609375 57.71109375 -140.49609375 57.05109375 -140.49609375 56.37109375 C-138.59765625 54.64453125 -138.59765625 54.64453125 -136.12109375 52.74609375 C-135.30898437 52.11445312 -134.496875 51.4828125 -133.66015625 50.83203125 C-131.49609375 49.37109375 -131.49609375 49.37109375 -129.49609375 49.37109375 C-129.49609375 48.71109375 -129.49609375 48.05109375 -129.49609375 47.37109375 C-127.34375 45.93359375 -127.34375 45.93359375 -124.55859375 44.37109375 C-120.87222167 42.5103148 -120.87222167 42.5103148 -118.49609375 39.37109375 C-117.15228067 38.69918721 -115.80459444 38.0345661 -114.4453125 37.39453125 C-112.1503993 36.18958685 -110.08005606 34.76231862 -107.93359375 33.30859375 C-84.13304611 17.95235 -54.04830891 6.90507868 -26.03515625 2.93359375 C-24.14935909 2.6338644 -22.26360396 2.31786401 -20.40229797 1.89170837 C-13.56754705 0.34037419 -6.99224901 0.03376642 0 0 Z M-36.49609375 46.37109375 C-37.54796875 46.49484375 -38.59984375 46.61859375 -39.68359375 46.74609375 C-44.6579058 47.56155474 -48.87763976 49.40409752 -53.49609375 51.37109375 C-54.40230469 51.73203125 -55.30851563 52.09296875 -56.2421875 52.46484375 C-73.99261749 59.5939174 -90.22706874 68.94959972 -105.68359375 80.18359375 C-106.29533447 80.62743408 -106.9070752 81.07127441 -107.53735352 81.52856445 C-111.16993162 84.22350707 -114.33254551 87.12318422 -117.49609375 90.37109375 C-119.61534348 92.21665329 -121.76340904 94.02092591 -123.921875 95.8203125 C-124.44136719 96.33207031 -124.96085937 96.84382813 -125.49609375 97.37109375 C-125.49609375 98.03109375 -125.49609375 98.69109375 -125.49609375 99.37109375 C-126.48609375 99.70109375 -127.47609375 100.03109375 -128.49609375 100.37109375 C-130.1550905 101.92956519 -130.1550905 101.92956519 -131.68359375 103.80859375 C-132.21339844 104.42605469 -132.74320313 105.04351562 -133.2890625 105.6796875 C-134.68972125 107.29610177 -134.68972125 107.29610177 -134.49609375 109.37109375 C-135.15609375 109.37109375 -135.81609375 109.37109375 -136.49609375 109.37109375 C-138.25253754 111.39753143 -139.88323397 113.42270658 -141.49609375 115.55859375 C-141.94726562 116.13673828 -142.3984375 116.71488281 -142.86328125 117.31054688 C-145.35238208 120.56920699 -147.02957498 123.51443141 -148.49609375 127.37109375 C-149.48609375 127.86609375 -149.48609375 127.86609375 -150.49609375 128.37109375 C-151.61545091 129.95093382 -151.61545091 129.95093382 -152.62109375 131.80859375 C-153.15089844 132.73478516 -153.15089844 132.73478516 -153.69140625 133.6796875 C-154.639297 135.35992093 -154.639297 135.35992093 -154.49609375 137.37109375 C-155.15609375 137.37109375 -155.81609375 137.37109375 -156.49609375 137.37109375 C-157.62450003 139.43179292 -158.74888146 141.49452471 -159.87109375 143.55859375 C-160.49757813 144.70714844 -161.1240625 145.85570312 -161.76953125 147.0390625 C-163.1966683 149.79324328 -164.36910733 152.48943226 -165.49609375 155.37109375 C-166.29527687 156.94044675 -167.10816741 158.50288367 -167.93359375 160.05859375 C-170.01813139 164.17876492 -171.51776597 168.20441515 -172.72265625 172.65625 C-173.38568705 174.98355507 -174.13121303 177.24415769 -174.91796875 179.53125 C-176.60064674 184.54045295 -177.90302996 189.60639006 -179.12109375 194.74609375 C-179.34055664 195.6685791 -179.56001953 196.59106445 -179.78613281 197.54150391 C-181.05351587 203.02414497 -182.08433201 208.38376037 -182.35546875 214.01953125 C-182.49609375 216.37109375 -182.49609375 216.37109375 -182.99438477 219.60083008 C-183.79549392 225.62103867 -183.68053829 231.61849781 -183.68359375 237.68359375 C-183.69583984 238.95138672 -183.70808594 240.21917969 -183.72070312 241.52539062 C-183.7307517 247.9933264 -183.40259519 253.93224175 -181.92675781 260.23168945 C-181.49609375 262.37109375 -181.49609375 262.37109375 -181.5 265.92578125 C-181.49498513 270.34889686 -180.54185186 274.23284782 -179.43359375 278.49609375 C-179.21316406 279.35702637 -178.99273437 280.21795898 -178.765625 281.10498047 C-175.46565165 293.65439837 -171.98204635 306.8435028 -165.63671875 318.23828125 C-164.38167367 320.58504363 -163.38071044 323.00738471 -162.34814453 325.45800781 C-160.844721 328.83360287 -159.0702566 332.06241935 -157.30859375 335.30859375 C-156.75655273 336.33436523 -156.75655273 336.33436523 -156.19335938 337.38085938 C-155.29690971 339.04569447 -154.39687852 340.70860024 -153.49609375 342.37109375 C-152.83609375 342.37109375 -152.17609375 342.37109375 -151.49609375 342.37109375 C-151.22796875 343.34046875 -150.95984375 344.30984375 -150.68359375 345.30859375 C-150.09578125 346.82453125 -150.09578125 346.82453125 -149.49609375 348.37109375 C-148.50609375 348.70109375 -147.51609375 349.03109375 -146.49609375 349.37109375 C-146.82944408 356.37145065 -147.30008233 362.10199443 -150.49609375 368.37109375 C-152.05312406 371.79656043 -153.40228473 374.97653017 -154.2734375 378.640625 C-155.75340707 384.72665808 -157.81930543 390.63859213 -159.80957031 396.57226562 C-160.49865369 398.62873351 -161.18124956 400.68727785 -161.86328125 402.74609375 C-162.3030004 404.06393061 -162.74309146 405.38164345 -163.18359375 406.69921875 C-163.57933594 407.88418945 -163.97507812 409.06916016 -164.3828125 410.29003906 C-165.28286777 412.78098151 -166.27602154 415.03079157 -167.49609375 417.37109375 C-167.91154025 418.77643131 -168.28809811 420.1939696 -168.62109375 421.62109375 C-168.90984375 422.85859375 -169.19859375 424.09609375 -169.49609375 425.37109375 C-164.93735294 424.73870745 -160.83913708 423.57023491 -156.49609375 422.05859375 C-151.59015737 420.37657568 -146.68393624 418.81902042 -141.68359375 417.43359375 C-133.92246389 415.26400518 -126.30948896 412.69676018 -118.67993164 410.11035156 C-107.59611716 406.35833477 -107.59611716 406.35833477 -102.18359375 404.74609375 C-101.38308594 404.50632812 -100.58257812 404.2665625 -99.7578125 404.01953125 C-98.63826172 403.69855469 -98.63826172 403.69855469 -97.49609375 403.37109375 C-96.84253906 403.11585938 -96.18898438 402.860625 -95.515625 402.59765625 C-92.46511495 402.25543269 -90.97516632 403.66984457 -88.49609375 405.37109375 C-42.61484525 433.93401768 11.10401111 441.32640963 63.50390625 429.37109375 C64.23899414 429.20851074 64.97408203 429.04592773 65.73144531 428.87841797 C74.72566669 426.87540038 83.1226468 424.26133756 91.50390625 420.37109375 C92.21981934 420.04447754 92.93573242 419.71786133 93.67333984 419.38134766 C109.01427094 412.37204752 122.92825688 404.36635208 136.50390625 394.37109375 C137.30183594 393.78972656 138.09976562 393.20835937 138.921875 392.609375 C146.26163585 387.20038297 153.14986889 381.39593858 159.00390625 374.37109375 C161.37482977 371.52598553 163.88692829 368.98807171 166.50390625 366.37109375 C174.40310668 358.72556429 174.40310668 358.72556429 178.50390625 349.37109375 C179.16390625 349.37109375 179.82390625 349.37109375 180.50390625 349.37109375 C182.10361072 347.22933039 182.10361072 347.22933039 183.62890625 344.55859375 C184.43714844 343.21861328 184.43714844 343.21861328 185.26171875 341.8515625 C186.72779462 339.38637478 186.72779462 339.38637478 186.50390625 336.37109375 C187.49390625 336.04109375 188.48390625 335.71109375 189.50390625 335.37109375 C190.73360503 331.85918566 190.73360503 331.85918566 191.50390625 328.37109375 C192.16390625 328.37109375 192.82390625 328.37109375 193.50390625 328.37109375 C193.91640625 327.40171875 194.32890625 326.43234375 194.75390625 325.43359375 C195.63268528 323.3748579 196.52452153 321.32587587 197.453125 319.2890625 C199.75091397 314.24845823 201.71551371 309.1519507 203.5625 303.9296875 C204.32647273 301.85333009 205.21072997 299.82151867 206.12890625 297.80859375 C207.58311351 294.1730756 208.32206717 290.7443767 208.9765625 286.8984375 C209.50390625 284.37109375 209.50390625 284.37109375 210.49609375 281.50390625 C211.59252923 278.09560682 212.10693619 274.8569382 212.56640625 271.30859375 C213.43431996 264.70240758 213.43431996 264.70240758 214.01098633 261.95678711 C217.79078176 242.1292421 216.51330414 218.83766587 211.50390625 199.37109375 C211.15902944 197.64419235 210.82485556 195.91510177 210.50390625 194.18359375 C209.15189427 187.3672 207.69061475 180.5754201 204.50390625 174.37109375 C204.06751759 172.7933809 203.63167162 171.21551494 203.19921875 169.63671875 C201.11788882 162.85485717 198.96755423 155.95376212 194.50390625 150.37109375 C193.80732262 148.71670762 193.14293742 147.04855057 192.50390625 145.37109375 C190.40963817 140.76370397 187.76947899 136.73167457 184.93359375 132.5625 C183.20561019 129.91386946 181.82769643 127.2393058 180.50390625 124.37109375 C179.84390625 124.37109375 179.18390625 124.37109375 178.50390625 124.37109375 C178.50390625 123.71109375 178.50390625 123.05109375 178.50390625 122.37109375 C177.84390625 122.37109375 177.18390625 122.37109375 176.50390625 122.37109375 C176.25640625 121.83484375 176.00890625 121.29859375 175.75390625 120.74609375 C172.97549148 115.46710568 169.49455283 110.78180839 165.50390625 106.37109375 C164.84390625 106.37109375 164.18390625 106.37109375 163.50390625 106.37109375 C163.22804688 105.77941406 162.9521875 105.18773437 162.66796875 104.578125 C157.58524571 94.94141857 147.58375711 88.27648928 138.921875 82.16796875 C136.89837368 80.66423594 135.2728227 79.14473992 133.50390625 77.37109375 C132.00733908 76.27467823 130.48465113 75.21327114 128.94140625 74.18359375 C128.15636719 73.65378906 127.37132812 73.12398437 126.5625 72.578125 C124.614084 71.20249258 124.614084 71.20249258 122.50390625 71.37109375 C122.50390625 70.71109375 122.50390625 70.05109375 122.50390625 69.37109375 C121.95605469 69.10296875 121.40820312 68.83484375 120.84375 68.55859375 C116.25223142 66.28896505 111.72616515 63.945779 107.24633789 61.46166992 C100.08416086 57.51868032 92.86571731 54.417093 85.16015625 51.6953125 C82.64567556 50.78461917 80.24664045 49.84510173 77.80859375 48.76953125 C75.17767823 47.65621239 72.90753431 46.8568671 70.12890625 46.30859375 C69.35933594 46.15132812 68.58976563 45.9940625 67.796875 45.83203125 C66.66185547 45.60386719 66.66185547 45.60386719 65.50390625 45.37109375 C64.14925357 45.06070731 62.7950933 44.74816484 61.44140625 44.43359375 C31.4421686 37.84839524 -7.42911658 33.88265515 -36.49609375 46.37109375 Z " fill="#FFFFFF" transform="translate(301.49609375,69.62890625)"/>
<path d="M0 0 C1.04994141 -0.01224609 2.09988281 -0.02449219 3.18164062 -0.03710938 C4.69854492 -0.04000977 4.69854492 -0.04000977 6.24609375 -0.04296875 C7.16962646 -0.04707764 8.09315918 -0.05118652 9.04467773 -0.05541992 C13.01212824 0.32736038 14.95368 1.46084387 17.5 4.5 C20.12635826 8.69187377 21.6326024 13.40256289 23.34375 18.01953125 C24.56067532 21.182757 25.97268473 24.11774419 27.53515625 27.1171875 C31.412734 34.93131757 34.38099016 43.21970836 37.44921875 51.375 C38.48030779 54.12631719 38.48030779 54.12631719 39.71875 56.38671875 C41.04993603 59.22781485 40.32444668 61.19832457 39.5625 64.1875 C38.6501519 66.57401055 37.63152886 68.86352422 36.5625 71.1875 C35.9025 71.1875 35.2425 71.1875 34.5625 71.1875 C34.2840625 72.1775 34.2840625 72.1775 34 73.1875 C31.81254216 77.75262941 28.18405527 82.87672237 23.5625 85.1875 C23.0675 86.6725 23.0675 86.6725 22.5625 88.1875 C21.5725 88.6825 21.5725 88.6825 20.5625 89.1875 C22.13635173 98.69687784 28.61978473 106.84109702 34.5625 114.1875 C35.2225 114.5175 35.8825 114.8475 36.5625 115.1875 C36.9853125 115.90550781 37.408125 116.62351562 37.84375 117.36328125 C39.89122379 120.72765296 42.3905531 123.50814981 45.0625 126.375 C45.54847656 126.90802734 46.03445313 127.44105469 46.53515625 127.99023438 C48.76971243 130.41049617 50.80807119 132.35121412 53.5625 134.1875 C53.5625 134.8475 53.5625 135.5075 53.5625 136.1875 C54.13871094 136.45175781 54.71492188 136.71601563 55.30859375 136.98828125 C57.67112026 138.24529276 59.55400841 139.68336762 61.625 141.375 C73.38151033 150.61634118 89.7368916 161.73696392 104.5625 165.1875 C108.84494706 164.66914049 110.62528871 162.20200632 113.5625 159.1875 C114.2225 159.1875 114.8825 159.1875 115.5625 159.1875 C115.8925 158.1975 116.2225 157.2075 116.5625 156.1875 C117.2225 156.1875 117.8825 156.1875 118.5625 156.1875 C119.76878008 153.85535852 120.7279738 151.69107861 121.5625 149.1875 C123.22916667 147.52083333 124.89583333 145.85416667 126.5625 144.1875 C127.2225 143.15625 127.8825 142.125 128.5625 141.0625 C130.76880088 137.89094248 131.95298464 136.55109469 135.5625 135.1875 C143.11466509 135.44638911 148.79744325 137.70447564 155.5625 140.9375 C156.96242188 141.58332031 156.96242188 141.58332031 158.390625 142.2421875 C163.59960944 144.67207689 168.66361364 147.27439239 173.65087891 150.13183594 C177.37195095 152.18674213 181.33539635 153.71836479 185.30078125 155.234375 C193.83694766 158.71667865 193.83694766 158.71667865 196.25 162.5 C199.80057374 172.47542147 196.21454289 184.73143309 192.3125 194.23046875 C185.63341278 206.4691371 170.91072045 215.23135161 157.74145508 219.1652832 C133.4584211 225.53299311 111.22585045 216.58653851 88.5625 208.1875 C87.38228271 207.75050781 87.38228271 207.75050781 86.17822266 207.3046875 C69.90762275 201.18130499 55.18367853 192.98661115 41.5625 182.1875 C40.10070312 181.13949219 40.10070312 181.13949219 38.609375 180.0703125 C28.59959757 172.80190628 20.14806988 164.04761337 11.53271484 155.20458984 C9.94316976 153.57722659 8.342367 151.96442438 6.7265625 150.36328125 C2.04699933 145.65837749 -2.08165771 140.92039724 -5.4375 135.1875 C-8.32910146 131.31545381 -11.33651568 127.53461255 -14.39453125 123.79296875 C-16.62998886 120.94201229 -18.66938253 118.00848993 -20.6875 115 C-21.39390625 113.95457031 -22.1003125 112.90914063 -22.828125 111.83203125 C-24.4375 109.1875 -24.4375 109.1875 -24.4375 107.1875 C-25.0975 107.1875 -25.7575 107.1875 -26.4375 107.1875 C-26.9325 104.7125 -26.9325 104.7125 -27.4375 102.1875 C-28.0975 102.1875 -28.7575 102.1875 -29.4375 102.1875 C-30.71373993 99.37734699 -31.98355646 96.56456541 -33.25 93.75 C-33.60642578 92.96689453 -33.96285156 92.18378906 -34.33007812 91.37695312 C-42.0811888 74.0969541 -46.25006243 52.18749698 -39.56494141 33.78564453 C-37.51858447 29.05547618 -35.06723941 24.61470964 -32.4375 20.1875 C-32.1075 19.5275 -31.7775 18.8675 -31.4375 18.1875 C-30.7775 18.1875 -30.1175 18.1875 -29.4375 18.1875 C-29.19902344 17.46175781 -28.96054688 16.73601562 -28.71484375 15.98828125 C-27.24675996 12.76927184 -25.50789876 10.8581904 -23 8.375 C-22.21753906 7.58480469 -21.43507812 6.79460937 -20.62890625 5.98046875 C-18.4375 4.1875 -18.4375 4.1875 -15.4375 4.1875 C-15.1075 3.1975 -14.7775 2.2075 -14.4375 1.1875 C-9.71782168 -0.38572611 -4.94260529 0.003023 0 0 Z " fill="#FFFFFF" transform="translate(242.4375,197.8125)"/>
<path d="M0 0 C0.66 0 1.32 0 2 0 C2 0.66 2 1.32 2 2 C1.34 2 0.68 2 0 2 C0 1.34 0 0.68 0 0 Z " fill="#FFFFFF" transform="translate(312,312)"/>
</svg>
